<?xml version="1.0" standalone="no"?>
<!DOCTYPE svg PUBLIC "-//W3C//DTD SVG 20010904//EN"
 "http://www.w3.org/TR/2001/REC-SVG-20010904/DTD/svg10.dtd">
<svg version="1.0" xmlns="http://www.w3.org/2000/svg"
 width="300.000000pt" height="510.000000pt" viewBox="0 0 300.000000 510.000000"
 preserveAspectRatio="xMidYMid meet">
<metadata>
Created by potrace 1.10, written by Peter Selinger 2001-2011
</metadata>
<g transform="translate(0.000000,510.000000) scale(0.100000,-0.100000)"
fill="#000000" stroke="none">
<path d="M1473 5051 c16 -5 34 -14 40 -19 8 -7 22 -6 42 3 l30 14 -35 -1 c-19
0 -51 3 -70 6 -31 5 -32 5 -7 -3z"/>
<path d="M1640 5051 c0 -6 16 -11 38 -11 131 0 225 -94 362 -361 76 -149 84
-178 85 -306 0 -71 3 -104 8 -90 5 12 7 67 5 122 -5 118 -28 182 -142 389
-103 186 -175 250 -294 262 -44 5 -62 3 -62 -5z"/>
<path d="M1085 4899 c-36 -34 -77 -87 -96 -122 -18 -34 -47 -84 -64 -112 -54
-84 -112 -229 -129 -317 -19 -102 -25 -204 -26 -415 l0 -161 -36 -43 c-19 -23
-44 -60 -55 -80 -12 -24 -41 -53 -77 -77 -64 -44 -232 -215 -296 -302 -61 -83
-129 -220 -160 -325 -15 -49 -36 -117 -46 -150 -10 -33 -26 -97 -34 -142 -8
-45 -27 -110 -41 -144 -22 -56 -25 -76 -25 -192 0 -129 0 -129 38 -211 29 -59
53 -93 90 -127 l52 -46 0 -216 c0 -210 1 -217 23 -242 12 -14 38 -33 57 -43
34 -16 35 -19 41 -87 3 -38 13 -90 22 -114 23 -59 22 -74 -12 -140 -53 -105
-50 -154 16 -233 33 -39 35 -46 28 -88 -4 -25 -9 -97 -10 -160 -2 -63 -8 -137
-13 -165 -28 -137 -26 -445 2 -445 10 0 11 13 5 53 -12 71 -12 200 0 267 5 30
7 58 5 61 -2 4 3 38 11 78 9 39 16 111 16 159 1 48 5 97 10 109 4 12 10 41 13
64 5 39 2 46 -39 92 -54 59 -59 88 -28 157 8 19 22 43 31 52 22 26 18 113 -8
178 -17 44 -20 64 -14 100 5 25 8 49 9 53 0 4 -29 22 -65 40 l-65 32 -1 240 0
240 -35 17 c-51 25 -83 65 -120 153 -28 69 -33 92 -33 165 -1 78 21 183 44
215 11 16 27 73 41 155 7 41 19 86 26 100 7 14 13 31 13 39 0 64 121 352 177
422 85 106 244 265 317 314 44 31 61 49 72 80 8 24 36 61 72 96 45 44 62 68
71 103 6 24 15 48 21 51 5 3 10 11 10 17 0 26 -49 -37 -60 -78 -13 -45 -29
-67 -31 -42 -6 69 4 510 12 535 6 18 8 37 5 42 -12 18 67 198 130 298 19 29
47 80 64 113 29 58 113 154 155 178 18 10 19 11 2 12 -10 0 -47 -27 -82 -61z"/>
<path d="M1271 4860 c0 -8 13 -42 29 -75 34 -69 30 -39 -5 38 -13 29 -24 45
-24 37z"/>
<path d="M1636 4813 c-4 -10 -4 -14 0 -10 8 8 44 -21 44 -34 0 -12 68 -116 80
-124 5 -3 10 -4 10 -1 0 6 -120 186 -125 186 -1 0 -6 -8 -9 -17z"/>
<path d="M1435 4798 c7 -19 -32 -160 -47 -169 -6 -4 -7 -12 -3 -19 6 -9 10 -9
17 1 6 9 7 2 3 -21 -5 -29 -4 -32 6 -17 6 10 9 28 6 39 -3 11 -2 30 3 42 4 11
14 47 21 79 10 45 10 60 0 70 -10 9 -11 8 -6 -5z"/>
<path d="M1730 4805 c0 -5 6 -22 14 -36 7 -15 23 -56 36 -93 12 -36 23 -66 26
-66 2 0 3 16 2 35 -1 19 -5 35 -9 35 -4 0 -10 12 -14 28 -6 28 -55 114 -55 97z"/>
<path d="M1610 4795 c0 -9 91 -119 101 -123 20 -8 7 20 -32 65 -40 46 -69 71
-69 58z"/>
<path d="M1517 4763 c-2 -5 -10 -26 -17 -48 -7 -22 -28 -68 -46 -103 -19 -34
-34 -65 -34 -69 0 -17 62 75 81 123 l23 54 13 -27 c13 -27 13 -27 8 -3 -2 14
-5 37 -5 53 0 25 -13 37 -23 20z"/>
<path d="M1826 4713 c8 -32 14 -70 14 -84 0 -15 7 -32 16 -39 13 -12 14 -10 3
13 -9 21 -9 33 -1 52 9 19 9 24 0 22 -7 -1 -15 15 -18 36 -4 21 -12 43 -17 48
-7 7 -5 -13 3 -48z"/>
<path d="M1215 4723 c-4 -21 -11 -60 -16 -87 -5 -27 -8 -51 -6 -53 9 -8 26 55
32 115 8 67 0 86 -10 25z"/>
<path d="M1111 4738 c0 -9 -15 -43 -32 -75 -17 -32 -23 -49 -14 -38 28 34 56
96 52 113 -4 16 -5 16 -6 0z"/>
<path d="M1913 4663 c-11 -41 -10 -46 2 -63 7 -8 18 -29 25 -46 9 -20 24 -34
47 -41 l33 -10 -35 34 c-19 19 -35 44 -36 56 0 12 -3 16 -6 9 -11 -27 -22 1
-17 43 6 50 -2 60 -13 18z"/>
<path d="M1136 4517 c-23 -62 -20 -69 9 -15 27 52 29 58 16 58 -4 0 -16 -19
-25 -43z"/>
<path d="M1563 4511 c71 -10 101 -25 116 -58 22 -49 15 -61 -34 -61 -25 0 -43
3 -40 8 3 5 1 11 -5 15 -5 3 -10 2 -10 -4 0 -15 -69 -26 -83 -12 -6 6 -20 11
-31 11 -14 0 -8 -6 19 -21 34 -17 51 -19 108 -14 80 7 91 -4 57 -60 -30 -49
-57 -65 -108 -65 -53 0 -92 17 -71 31 11 8 10 9 -4 7 -11 -2 -25 9 -38 29
l-20 32 38 6 c58 10 64 16 11 11 -37 -3 -48 0 -51 13 -4 13 -5 13 -6 1 -1 -10
-20 -20 -54 -28 -71 -16 -104 -15 -115 4 -8 14 -10 13 -23 -2 -13 -16 -12 -17
5 -11 14 5 17 3 13 -8 -10 -24 5 -25 91 -5 l83 18 15 -30 c13 -25 14 -32 2
-40 -10 -8 -10 -9 2 -5 8 2 26 -4 39 -14 15 -12 40 -19 67 -19 24 0 44 -5 44
-10 0 -16 34 5 72 44 18 19 42 36 53 39 18 4 17 5 -3 6 -15 1 -21 5 -16 12 4
7 8 24 9 38 1 14 3 36 3 47 3 37 82 43 82 7 0 -8 -4 -12 -9 -9 -5 4 -20 2 -33
-3 -23 -8 -22 -8 7 -15 24 -5 33 -14 43 -46 7 -22 24 -54 39 -70 24 -27 32
-30 87 -30 34 0 67 4 73 8 7 4 -16 6 -50 4 -62 -4 -64 -3 -95 32 -35 41 -52
90 -47 144 1 20 1 33 -1 27 -2 -5 -27 -10 -54 -10 -39 1 -53 6 -65 22 -8 11
-12 22 -10 25 2 2 -4 4 -13 5 -9 1 -46 4 -82 7 l-65 5 58 -8z"/>
<path d="M1428 4469 c-24 -26 -45 -39 -54 -35 -8 3 -12 1 -9 -4 3 -6 -1 -7
-10 -4 -9 4 -14 12 -11 19 2 6 0 18 -5 26 -7 11 -9 9 -9 -8 0 -24 -26 -43 -59
-43 -12 0 -21 -4 -21 -10 0 -6 18 -7 45 -3 25 3 45 2 45 -3 0 -5 10 -15 21
-23 20 -12 21 -11 17 7 -4 13 0 23 8 26 8 3 14 1 14 -5 0 -6 5 -7 10 -4 6 3
10 15 10 25 0 21 33 57 65 70 19 8 19 9 1 9 -11 1 -37 -17 -58 -40z"/>
<path d="M2010 4461 c0 -5 7 -22 15 -37 15 -29 20 -17 9 24 -6 21 -24 31 -24
13z"/>
<path d="M1477 4449 c-66 -11 -51 -18 46 -21 89 -3 95 -2 80 14 -15 17 -51 19
-126 7z"/>
<path d="M1814 4448 c-9 -14 -5 -16 61 -25 33 -5 59 -14 58 -19 -1 -6 8 -16
20 -23 18 -11 20 -11 10 0 -7 7 -13 21 -13 31 0 9 -8 21 -17 26 -27 14 -112
21 -119 10z"/>
<path d="M1984 4418 c3 -13 6 -35 6 -50 0 -21 5 -28 20 -28 13 0 20 7 20 20 0
11 -6 20 -14 20 -8 0 -14 6 -13 13 1 31 -4 47 -14 47 -7 0 -9 -9 -5 -22z"/>
<path d="M2047 4353 c-7 -69 -6 -85 8 -185 10 -76 -8 -151 -41 -173 -14 -9
-29 -13 -34 -10 -5 3 -31 -14 -59 -37 -27 -24 -70 -60 -94 -81 -43 -35 -46
-41 -52 -101 -6 -53 -4 -70 11 -95 12 -20 21 -26 25 -19 10 15 46 -9 115 -77
55 -54 66 -75 38 -75 -10 0 -13 -6 -10 -18 8 -24 -35 -47 -54 -29 -10 9 -11 9
-6 0 3 -6 -1 -18 -10 -27 -17 -18 -11 -36 12 -36 19 0 110 93 120 122 3 11 2
23 -3 27 -81 56 -124 97 -121 115 3 22 37 28 72 13 12 -6 21 -5 27 4 9 15 8
16 37 -31 l22 -35 0 28 c0 25 3 27 23 22 12 -4 34 -19 49 -35 22 -24 27 -41
33 -107 3 -43 13 -141 21 -218 21 -205 36 -425 36 -545 0 -58 4 -109 8 -115 4
-5 16 -41 26 -80 17 -62 19 -109 20 -390 0 -264 3 -330 16 -375 9 -30 24 -95
34 -145 16 -83 111 -341 164 -444 23 -46 26 -103 6 -120 -24 -20 -37 -93 -41
-236 -2 -101 1 -156 11 -198 18 -71 23 -65 -111 -164 -128 -96 -258 -159 -356
-174 -41 -6 -99 -16 -129 -22 -30 -7 -62 -12 -70 -13 -8 -1 -23 -4 -32 -8 -19
-9 -201 19 -268 40 -25 7 -70 16 -100 19 -30 2 -73 8 -95 11 -39 6 -188 67
-212 86 -7 5 -17 7 -22 4 -33 -21 -416 143 -521 223 -41 31 -56 38 -58 26 -4
-18 -4 -18 -48 0 -30 12 -35 12 -31 1 3 -7 0 -19 -6 -25 -8 -8 -4 -11 15 -11
21 0 28 -6 31 -27 l4 -28 2 28 c1 26 13 33 50 27 8 -1 40 -19 70 -39 45 -31
221 -121 236 -121 2 0 16 -5 32 -12 32 -13 25 -11 83 -27 25 -7 111 -39 192
-72 81 -32 159 -59 172 -59 28 0 49 -22 54 -58 3 -25 30 -54 124 -139 54 -49
81 -56 220 -58 119 -1 127 0 137 19 23 49 51 119 51 131 0 7 9 23 20 37 15 20
31 26 82 31 88 9 262 83 326 140 12 11 22 15 22 9 0 -6 19 6 43 28 23 21 62
58 86 80 64 59 70 45 56 -122 -7 -74 -5 -91 9 -113 16 -24 16 -35 6 -92 -13
-79 -1 -106 58 -124 50 -14 86 1 170 71 68 57 101 102 122 164 7 21 29 56 50
77 38 39 50 79 50 168 0 20 7 49 15 65 21 40 21 199 0 216 -19 16 -19 63 0
125 11 40 12 71 5 169 -6 67 -15 181 -20 255 -6 73 -12 137 -15 142 -3 4 -10
58 -16 119 -6 61 -19 161 -30 223 -11 62 -26 159 -34 217 -18 131 -42 225
-101 393 -25 73 -58 175 -73 227 -15 52 -38 114 -49 137 -12 23 -31 64 -41 90
-67 165 -97 225 -165 327 -80 120 -117 156 -203 200 -49 24 -52 28 -58 73 -4
27 -9 55 -11 64 -6 23 -64 79 -83 81 -34 3 -68 7 -113 13 -34 4 -57 2 -81 -10
-26 -12 -40 -13 -60 -6 -25 10 -27 15 -27 70 l0 60 71 58 c39 32 91 69 117 83
25 14 54 37 64 51 21 28 43 160 28 169 -8 5 -21 140 -20 213 1 63 -17 41 -23
-30z m191 -923 c23 -16 45 -30 49 -30 10 0 83 -72 83 -82 0 -5 18 -33 40 -62
22 -29 40 -57 40 -63 0 -5 8 -18 18 -29 20 -24 52 -81 52 -95 0 -11 21 -61 93
-219 19 -41 42 -106 52 -145 9 -38 26 -89 36 -112 10 -23 19 -49 19 -57 0 -8
5 -18 10 -21 6 -3 10 -17 10 -29 0 -13 9 -44 20 -68 11 -25 21 -54 23 -64 2
-10 7 -26 10 -34 12 -30 36 -147 47 -230 6 -47 17 -114 25 -150 7 -36 13 -74
13 -85 1 -11 5 -40 11 -65 6 -25 10 -77 11 -117 0 -39 4 -83 9 -96 16 -41 30
-172 38 -347 9 -211 9 -221 -6 -308 -12 -72 -12 -75 10 -98 12 -13 19 -24 15
-24 -4 0 0 -10 8 -22 22 -31 20 -51 -11 -111 -22 -42 -28 -70 -33 -147 l-5
-95 -32 -14 c-23 -10 -34 -23 -39 -45 -20 -93 -86 -175 -200 -248 -36 -23 -44
-25 -55 -12 -6 8 -22 14 -35 14 -27 0 -28 2 -13 86 10 58 14 65 47 82 28 14
36 25 34 41 -3 22 12 29 23 11 4 -6 15 -8 26 -5 12 4 19 2 19 -7 -1 -16 -35
-58 -47 -58 -5 0 -9 -10 -9 -22 1 -13 -8 -27 -22 -34 -32 -16 -41 -28 -14 -20
15 5 22 3 22 -5 0 -7 11 2 25 21 14 19 25 39 25 46 0 6 7 15 16 18 11 4 15 17
13 43 -1 21 1 49 6 63 12 37 9 118 -5 135 -7 8 -18 15 -26 15 -14 0 -18 -9
-34 -101 -8 -48 -20 -77 -42 -103 -59 -72 -86 -31 -69 106 8 62 8 94 0 115 -7
18 -8 60 -4 114 6 81 5 88 -18 123 -29 41 -51 125 -45 171 3 28 6 30 51 33 44
3 47 5 47 30 -1 33 -21 62 -44 62 -10 0 -14 5 -11 10 4 6 11 8 16 4 12 -7 3
53 -17 110 -8 21 -14 55 -14 75 0 46 -10 82 -20 76 -5 -3 -6 -15 -2 -28 5 -20
4 -21 -11 -8 -19 15 -23 41 -6 41 5 0 7 5 3 12 -6 9 -9 9 -12 0 -6 -18 -22 -4
-22 19 0 10 -4 19 -8 19 -14 0 -32 48 -32 83 0 18 -5 38 -12 45 -7 7 -8 12 -3
12 6 0 4 4 -3 9 -7 4 -14 19 -16 32 -1 13 -8 34 -15 47 -6 12 -13 43 -15 68
-1 25 -8 49 -15 53 -6 4 -13 23 -14 42 -1 19 -6 39 -10 46 -11 17 -6 186 6
201 6 8 6 12 -2 12 -7 0 -10 4 -7 8 3 4 7 55 11 113 3 57 8 124 11 149 12 114
13 135 5 115 -5 -11 -7 -23 -4 -27 2 -5 0 -8 -5 -8 -43 0 -63 325 -36 585 5
55 13 78 35 106 38 49 65 120 39 104 -5 -3 -10 -14 -10 -24 0 -9 -9 -27 -20
-39 -11 -12 -20 -26 -20 -32 0 -5 -4 -10 -9 -10 -11 0 -21 60 -21 126 0 73
-11 144 -21 138 -5 -3 -9 0 -9 7 0 7 -11 27 -25 45 -42 54 -29 59 33 14z m-27
-127 c16 -41 36 -213 28 -248 -4 -16 -7 -24 -8 -16 0 7 -7 59 -15 115 -27 186
-28 207 -5 149z m289 -2604 c0 -24 -4 -38 -10 -34 -5 3 -10 24 -10 46 0 24 4
38 10 34 6 -3 10 -24 10 -46z m-1092 -423 c-11 -8 -14 -17 -7 -27 7 -11 10
-10 15 9 5 18 13 22 45 22 21 0 42 -6 46 -12 4 -7 28 -14 53 -14 111 -3 235
-16 238 -25 2 -5 18 4 35 21 17 16 34 30 39 30 6 0 -16 -66 -61 -184 l-11 -28
-128 4 -127 4 -60 46 c-129 100 -153 134 -125 178 8 12 10 12 16 -3 3 -9 10
-14 16 -11 5 3 7 13 3 23 -5 13 -3 13 12 -2 17 -17 17 -19 1 -31z"/>
<path d="M2372 3068 c-40 -39 -71 -72 -69 -74 4 -4 147 131 147 139 0 11 -2
10 -78 -65z"/>
<path d="M2706 902 c-3 -5 17 -12 46 -15 29 -4 75 -18 102 -31 58 -29 74 -27
25 4 -52 31 -162 59 -173 42z"/>
<path d="M2537 880 c3 -11 0 -20 -6 -20 -14 0 -14 -40 0 -60 7 -11 9 -7 7 19
-3 29 1 36 32 53 31 17 32 19 10 16 -14 -1 -30 1 -37 5 -7 5 -9 1 -6 -13z"/>
<path d="M2820 730 c0 -58 4 -89 10 -85 12 7 11 163 -2 171 -4 3 -8 -36 -8
-86z"/>
<path d="M2583 583 c-12 -2 -24 -11 -27 -19 -4 -11 -1 -12 12 -6 9 5 40 12 69
14 41 4 50 2 46 -9 -4 -11 1 -12 20 -8 15 4 38 0 58 -10 60 -30 129 -80 129
-93 0 -7 5 -10 10 -7 19 12 10 24 -45 65 -92 68 -178 91 -272 73z"/>
<path d="M1535 4299 c-20 -5 -9 -6 35 -3 35 3 66 7 69 10 7 7 -72 2 -104 -7z"/>
<path d="M1202 4260 c-6 -22 -12 -55 -12 -74 0 -19 -6 -37 -12 -40 -7 -3 -4
-4 6 -3 13 1 26 -11 43 -43 13 -25 29 -49 34 -55 14 -13 0 225 -13 243 -18 22
-33 13 -46 -28z m47 -119 c1 -55 -22 -21 -25 36 -5 70 8 101 17 43 4 -25 8
-61 8 -79z"/>
<path d="M1035 4223 c-13 -32 -15 -74 -4 -91 9 -14 10 -13 6 6 -3 12 -1 39 5
58 10 38 5 57 -7 27z"/>
<path d="M1610 4148 c-36 -6 -68 -15 -71 -20 -4 -6 -12 -7 -18 -4 -13 9 -159
-13 -181 -26 -10 -6 -1 -7 25 -2 22 3 87 8 144 10 109 4 141 10 153 28 6 8 8
8 8 -1 0 -13 56 -1 74 17 12 12 -42 11 -134 -2z"/>
<path d="M1768 4149 c7 -8 35 -14 63 -15 65 -1 49 15 -22 23 -46 5 -52 3 -41
-8z"/>
<path d="M1181 4083 c32 -41 40 -63 29 -84 -9 -16 -8 -26 6 -47 12 -18 18 -53
21 -117 4 -97 -4 -123 -33 -110 -11 5 -31 10 -45 11 -15 2 -39 9 -55 15 -16 7
-34 11 -40 10 -7 -1 -14 6 -18 14 -3 9 -10 14 -15 10 -14 -8 -57 31 -71 64
-13 33 -57 56 -62 33 -2 -8 8 -28 22 -43 14 -15 35 -41 47 -57 14 -19 35 -32
57 -36 19 -4 45 -15 58 -25 15 -12 33 -17 50 -14 33 6 87 -20 112 -53 13 -19
15 -28 7 -33 -9 -6 -7 -12 5 -22 12 -9 15 -10 10 -1 -11 18 14 15 35 -4 15
-13 16 -21 7 -37 -7 -14 -9 -71 -6 -168 5 -152 12 -179 48 -179 27 0 40 -22
41 -73 1 -26 6 -47 10 -47 10 0 -12 -42 -33 -63 -20 -21 -29 -3 -16 31 4 13 6
27 4 31 -3 4 -8 23 -11 41 -3 18 -10 40 -15 49 -7 13 -9 10 -10 -11 0 -14 6
-29 13 -31 6 -3 8 -6 2 -6 -13 -1 -7 -151 6 -151 6 0 34 22 62 49 29 26 66 55
82 64 17 8 43 29 59 46 17 17 40 31 53 31 13 0 23 1 23 3 0 1 4 16 9 34 8 27
7 31 -9 30 -10 0 -16 -6 -14 -12 6 -17 -9 -33 -56 -55 -81 -39 -90 -45 -90
-63 0 -31 -22 -14 -37 28 -8 22 -26 68 -40 102 -25 64 -24 88 5 79 10 -3 28 2
42 10 24 14 23 14 -20 9 -51 -6 -92 10 -96 38 -1 10 4 21 12 24 9 3 11 10 5
21 -4 10 -9 47 -10 85 -2 50 1 67 11 67 26 -1 96 -38 111 -60 31 -44 148 -140
171 -140 33 0 114 -67 139 -114 l21 -41 8 59 c4 33 13 63 19 67 8 4 5 10 -7
18 -12 6 -14 11 -5 11 9 0 11 8 7 24 -3 13 1 58 10 100 15 72 14 77 -5 118
l-20 43 5 -60 c4 -44 1 -71 -11 -100 -19 -44 -28 -85 -20 -85 3 0 10 10 15 23
14 35 11 -51 -3 -91 l-12 -33 -22 21 c-12 11 -27 20 -33 20 -5 0 -10 4 -10 9
0 5 -18 16 -41 25 -25 10 -37 20 -33 28 5 8 2 9 -9 5 -10 -3 -17 -3 -17 1 0 5
-16 14 -35 21 -19 7 -35 16 -35 21 0 21 -105 110 -148 127 -26 9 -63 32 -81
49 l-35 33 1 128 c1 70 2 131 2 136 2 14 17 6 56 -31 22 -21 56 -49 75 -64 60
-43 191 -108 220 -108 37 0 110 32 134 59 27 30 16 26 -45 -15 -45 -30 -59
-34 -89 -29 -63 12 -235 122 -304 194 -20 20 -39 31 -58 31 -15 0 -28 5 -28
10 0 6 9 10 19 10 11 0 22 4 26 9 9 16 -57 101 -78 101 -18 0 -18 -2 -6 -17z"/>
<path d="M1510 4026 c-55 -6 -69 -11 -54 -17 12 -4 39 -3 60 2 22 5 59 7 84 4
33 -3 38 -2 20 4 -24 8 -24 8 10 13 34 5 34 5 -5 4 -22 0 -74 -5 -115 -10z"/>
<path d="M758 3623 c10 -4 9 -9 -5 -19 -16 -13 -15 -13 10 -3 20 9 33 9 52 1
24 -11 25 -15 25 -106 0 -75 4 -102 19 -128 17 -30 32 -94 48 -214 6 -43 -19
-155 -41 -190 -12 -17 -12 -29 0 -74 24 -91 17 -130 -22 -130 -13 0 -24 4 -24
9 0 14 -30 7 -40 -10 -5 -8 -18 -15 -29 -15 -11 -1 -18 2 -16 6 3 4 -2 10 -10
14 -9 3 -15 0 -15 -8 0 -8 -15 -19 -32 -26 -18 -6 -41 -16 -51 -21 -10 -5 -23
-6 -30 -2 -6 4 -18 8 -27 8 -8 1 -26 5 -40 9 -14 4 -4 -5 23 -20 63 -37 64
-58 2 -34 -23 9 -26 8 -21 -5 3 -9 0 -15 -9 -15 -8 0 -15 -5 -15 -11 0 -5 5
-7 10 -4 6 4 5 -4 -1 -19 -7 -15 -29 -32 -55 -43 -49 -20 -62 -53 -21 -53 15
0 46 24 91 70 76 77 135 110 242 135 38 9 92 22 120 30 28 8 60 15 70 15 12 0
28 14 39 33 24 40 75 147 71 147 -2 0 -25 -34 -52 -76 -43 -68 -78 -103 -90
-91 -6 5 69 133 96 164 13 15 29 23 40 20 15 -4 28 17 73 112 47 99 76 172 94
241 8 31 23 -15 22 -70 -1 -30 3 -66 9 -80 7 -17 8 10 4 90 -2 63 -8 116 -12
118 -4 2 -86 53 -181 114 -201 128 -222 138 -286 137 -26 0 -42 -3 -35 -6z
m142 -53 c5 8 17 3 41 -18 19 -16 79 -60 134 -97 55 -37 102 -71 103 -76 2 -5
10 -9 18 -9 16 0 18 -42 4 -75 -7 -17 -9 -16 -11 10 -1 18 -5 4 -10 -33 -11
-72 -43 -165 -64 -182 -8 -7 -15 -20 -15 -29 0 -24 -30 -62 -42 -55 -8 5 -9 1
-5 -10 4 -10 3 -15 -3 -11 -6 3 -10 2 -10 -2 0 -5 -18 -17 -39 -27 -28 -12
-38 -22 -34 -32 6 -17 -36 -84 -54 -84 -14 0 -28 80 -20 113 3 12 13 42 22 67
26 69 23 166 -7 259 -6 20 -8 61 -3 105 4 39 4 68 0 64 -4 -3 -8 -14 -9 -25
-5 -30 -21 -20 -24 16 -2 21 0 31 7 26 6 -3 11 0 11 7 0 10 2 10 9 -1 5 -8 9
5 9 35 0 27 -3 42 -6 34 -10 -21 -36 -25 -28 -5 3 9 6 24 7 33 0 12 2 13 6 3
4 -10 7 -10 13 -1z"/>
<path d="M2100 3600 c-1 -3 -3 -27 -5 -54 -3 -49 -2 -49 12 -22 10 20 12 34 4
54 -5 15 -10 25 -11 22z"/>
<path d="M658 3528 c-8 -7 -26 -33 -41 -58 -14 -25 -39 -59 -57 -77 -20 -21
-27 -34 -19 -38 6 -4 15 -1 19 6 5 8 23 34 40 59 42 61 80 120 77 120 -2 0
-10 -6 -19 -12z"/>
<path d="M2091 3459 c-18 -22 -45 -46 -60 -52 -36 -15 -71 -47 -71 -65 0 -9
-6 -23 -14 -31 -18 -21 -34 -471 -17 -471 6 0 12 24 13 58 2 79 3 85 11 99 4
6 3 13 -3 15 -6 2 -4 15 5 32 9 16 13 36 11 45 -10 37 -17 226 -8 216 5 -5 44
-83 87 -173 68 -145 78 -174 90 -260 39 -280 39 -381 0 -657 -16 -118 -20
-226 -10 -290 7 -42 13 -91 14 -112 1 -7 5 -13 10 -13 5 0 7 17 5 38 -19 200
-21 229 -13 245 6 10 6 17 0 17 -10 0 -5 31 9 65 30 69 35 354 11 617 -12 133
-21 310 -22 430 0 111 -4 222 -7 245 l-7 42 -34 -40z m23 -109 c2 -22 0 -71
-3 -110 -4 -39 -4 -73 -1 -75 4 -2 5 -52 1 -74 -2 -11 -30 36 -31 50 0 8 -8
24 -19 35 -10 11 -26 38 -35 60 -10 21 -22 47 -27 56 -15 29 9 75 54 102 48
28 57 22 61 -44z"/>
<path d="M625 3360 c-4 -6 -15 -8 -26 -5 -10 4 -19 2 -19 -3 0 -5 36 -24 80
-42 86 -35 137 -67 194 -125 20 -19 36 -30 36 -24 0 15 -116 130 -123 123 -9
-9 -48 22 -39 31 4 5 2 5 -4 2 -7 -4 -25 -4 -41 -1 -21 4 -29 11 -29 26 1 23
-18 35 -29 18z"/>
<path d="M439 3314 c-74 -63 -82 -72 -29 -36 64 45 107 82 94 82 -5 0 -35 -21
-65 -46z"/>
<path d="M1510 3335 c-7 -8 -15 -13 -19 -10 -4 2 -20 -5 -37 -16 -39 -25 -8
-25 34 1 18 11 39 20 48 20 8 0 12 5 9 10 -9 14 -21 12 -35 -5z"/>
<path d="M1880 3218 c-23 -41 -30 -65 -30 -108 0 -55 0 -55 -15 -26 -8 15 -13
32 -10 36 3 5 -1 10 -7 13 -10 4 -11 7 0 18 6 7 12 20 12 29 0 13 -1 13 -10 0
-8 -12 -13 -13 -30 -2 -11 7 -20 8 -20 3 0 -5 5 -11 11 -13 6 -2 13 -16 14
-31 2 -16 8 -34 14 -41 6 -7 8 -16 4 -19 -3 -4 -1 -7 5 -7 9 0 10 -13 6 -42
-4 -28 -2 -38 4 -30 7 11 11 8 15 -9 4 -13 2 -26 -4 -29 -6 -4 -4 -19 5 -41
15 -34 15 -33 11 39 -2 40 -7 76 -9 81 -3 5 1 14 8 21 8 6 14 28 14 49 0 21 5
46 11 57 13 22 40 104 35 104 -2 0 -17 -24 -34 -52z"/>
<path d="M1685 3231 c-3 -5 -2 -12 3 -15 4 -2 9 -19 10 -38 2 -18 7 -35 13
-37 6 -2 -2 -9 -17 -17 -22 -12 -30 -12 -43 -2 -14 12 -14 11 0 -11 21 -33 36
-37 44 -12 3 12 13 21 21 21 17 0 17 5 4 31 -6 10 -11 35 -12 54 -1 34 -11 45
-23 26z"/>
<path d="M1265 3130 c3 -5 0 -10 -7 -10 -8 0 -9 -3 -3 -8 12 -8 12 -43 1 -61
-4 -6 -1 -11 7 -11 9 0 14 15 16 50 1 31 -2 50 -9 50 -6 0 -8 -4 -5 -10z"/>
<path d="M385 3090 c3 -5 0 -12 -5 -15 -7 -5 -5 -12 7 -21 17 -13 17 -15 1
-28 -25 -18 -23 -29 2 -14 11 7 20 20 19 28 -3 31 1 42 14 37 8 -3 20 -1 28 3
10 7 9 9 -6 9 -11 -1 -30 2 -43 5 -12 3 -20 1 -17 -4z"/>
<path d="M1663 3064 c9 -11 17 -25 17 -30 0 -5 9 -15 20 -22 33 -20 23 1 -17
39 -21 18 -30 25 -20 13z"/>
<path d="M646 3041 c-3 -4 5 -6 17 -4 14 3 29 -2 36 -11 8 -9 18 -16 24 -16 6
0 1 9 -11 20 -22 21 -57 27 -66 11z"/>
<path d="M1163 2958 c-42 -20 -60 -43 -25 -32 15 5 14 4 -2 -10 -16 -13 -22
-13 -35 -3 -12 10 -14 9 -9 -4 4 -9 1 -22 -5 -29 -7 -7 4 -4 23 5 19 10 38 22
41 26 3 5 17 10 31 11 15 1 24 6 21 11 -3 5 -17 6 -32 3 -24 -6 -25 -5 -7 9
10 8 22 12 26 10 5 -3 10 2 14 10 3 8 4 15 3 15 -1 -1 -21 -10 -44 -22z"/>
<path d="M1386 2933 c16 -16 37 -29 47 -30 11 -1 2 10 -22 28 -51 37 -62 37
-25 2z"/>
<path d="M1790 2910 c23 -45 37 -47 26 -6 -3 14 -15 30 -27 36 -20 11 -20 11
1 -30z"/>
<path d="M1494 2848 c4 -18 2 -28 -5 -28 -8 0 -8 -4 1 -15 30 -36 40 -6 14 41
l-16 29 6 -27z"/>
<path d="M775 2841 c-18 -7 -17 -9 12 -24 18 -10 34 -13 37 -8 3 5 -1 12 -10
15 -8 3 -12 10 -9 16 7 12 -2 12 -30 1z"/>
<path d="M640 2810 c0 -26 -27 -39 -60 -30 -15 4 -33 4 -40 0 -7 -4 -25 -4
-41 0 -15 5 -30 6 -33 2 -3 -3 -6 0 -6 6 0 7 -13 9 -35 5 -28 -4 -35 -2 -35
11 0 9 -8 16 -17 15 -11 0 -13 -3 -5 -6 25 -10 11 -22 -35 -30 -27 -4 -54 -7
-61 -6 -10 1 -10 -2 -1 -13 6 -8 21 -14 33 -13 20 0 21 1 1 9 -16 7 -11 9 20
9 41 0 209 -14 280 -25 37 -5 41 -3 53 26 14 31 10 60 -8 60 -5 0 -10 -9 -10
-20z"/>
<path d="M1054 2764 c4 -9 2 -12 -5 -8 -14 8 -29 -14 -28 -41 0 -19 0 -19 12
1 7 12 18 19 25 17 7 -3 12 -1 11 4 -4 22 2 34 14 27 6 -4 8 -3 4 1 -14 16
-39 15 -33 -1z"/>
<path d="M1505 2756 c5 -35 7 -37 23 -27 10 6 8 13 -8 32 l-20 24 5 -29z"/>
<path d="M1909 2715 c-3 -59 -3 -183 0 -257 0 -21 5 -38 9 -38 5 0 6 14 4 31
-3 20 0 34 9 40 8 5 9 9 3 9 -8 0 -11 37 -9 118 2 124 -12 205 -16 97z"/>
<path d="M1469 2713 c6 -12 8 -29 5 -37 -3 -9 -1 -16 5 -16 6 0 11 5 11 11 0
8 6 7 18 -2 15 -12 16 -12 5 2 -7 9 -9 19 -5 23 4 4 2 6 -5 4 -6 -1 -19 6 -28
17 -16 20 -16 20 -6 -2z"/>
<path d="M202 2684 c-12 -14 -20 -30 -17 -34 3 -5 -4 -12 -16 -15 -11 -4 -18
-13 -15 -20 2 -7 -2 -22 -10 -34 -8 -12 -12 -26 -9 -31 3 -6 0 -10 -8 -10 -9
0 -14 -10 -14 -27 0 -15 -6 -29 -12 -31 -6 -2 -11 -14 -11 -26 0 -12 -7 -31
-15 -43 -10 -14 -12 -24 -5 -28 6 -4 17 9 25 29 8 19 44 94 79 166 36 71 62
130 58 130 -4 0 -17 -12 -30 -26z"/>
<path d="M451 2701 c-8 -5 -20 -7 -28 -4 -8 3 -15 -5 -19 -26 -4 -17 -12 -31
-18 -31 -6 0 -4 -5 4 -10 13 -9 13 -12 -2 -20 -9 -6 -19 -24 -23 -40 -5 -25
-11 -30 -26 -25 -20 7 -25 -4 -10 -20 5 -6 11 -19 14 -30 4 -15 5 -13 6 8 0
15 6 27 11 27 6 0 10 6 10 14 0 8 7 16 15 20 8 3 15 10 15 16 0 6 -6 8 -12 4
-7 -4 -6 1 3 12 9 10 19 27 22 37 4 9 15 17 25 17 15 0 42 35 42 55 0 8 -14 5
-29 -4z"/>
<path d="M1046 2662 c-4 -6 -13 -9 -21 -5 -8 3 -15 0 -15 -7 0 -6 8 -10 18 -8
9 1 23 -1 30 -5 14 -9 16 2 3 22 -6 9 -11 10 -15 3z"/>
<path d="M1196 2594 c-9 -25 -7 -62 5 -69 7 -5 8 5 4 29 -5 24 -3 36 4 36 6 0
11 5 11 10 0 16 -17 12 -24 -6z"/>
<path d="M2207 2490 c-20 -324 -20 -330 -3 -330 9 0 16 5 16 10 0 6 -5 10 -11
10 -8 0 -8 4 -1 13 6 7 7 18 3 26 -10 16 -3 51 11 51 5 0 4 8 -1 19 -6 10 -8
21 -5 24 10 10 14 221 5 252 -6 23 -9 7 -14 -75z"/>
<path d="M903 2515 c0 -15 -7 -31 -14 -36 -10 -6 -7 -8 9 -6 23 1 30 29 13 56
-6 9 -8 5 -8 -14z"/>
<path d="M1340 2531 c0 -5 5 -13 11 -17 12 -7 4 -64 -10 -74 -4 -3 -11 -15
-15 -27 -6 -18 -4 -22 8 -17 9 3 14 9 11 14 -5 9 17 60 27 60 9 0 -11 58 -23
66 -5 3 -9 1 -9 -5z"/>
<path d="M530 2510 c0 -7 -8 -9 -21 -5 -14 5 -20 3 -17 -5 2 -6 7 -11 12 -10
5 1 12 -4 16 -10 6 -9 11 -7 19 8 7 14 8 23 1 27 -5 3 -10 1 -10 -5z"/>
<path d="M440 2486 c0 -8 -3 -21 -6 -30 -3 -9 -2 -16 3 -16 5 0 14 14 20 30 9
25 9 30 -3 30 -8 0 -14 -6 -14 -14z"/>
<path d="M320 2456 c0 -8 -7 -17 -16 -20 -10 -4 -13 -13 -9 -26 3 -11 0 -32
-9 -47 -8 -16 -18 -41 -22 -58 -5 -21 -8 -25 -11 -12 -3 9 -9 17 -14 17 -14 0
-11 -16 6 -30 16 -13 13 -17 60 96 10 24 10 35 2 44 -9 10 -9 11 0 6 7 -4 17
2 22 13 14 25 14 31 1 31 -5 0 -10 -6 -10 -14z"/>
<path d="M610 2435 c-1 -16 -3 -38 -5 -47 -4 -20 13 -25 20 -5 2 6 0 28 -4 47
l-9 35 -2 -30z"/>
<path d="M386 2425 c-19 -29 -21 -51 -4 -61 8 -5 9 -2 5 10 -4 9 0 30 8 47 19
35 13 38 -9 4z"/>
<path d="M1713 2427 c-23 -7 -50 -20 -60 -30 -15 -15 -12 -14 22 3 49 25 92
26 98 3 3 -11 5 -7 6 10 1 30 -3 31 -66 14z"/>
<path d="M1090 2412 c0 -5 7 -15 15 -22 8 -7 15 -24 15 -39 1 -22 2 -23 11 -9
9 17 2 74 -9 64 -3 -3 -11 -1 -19 5 -8 7 -13 8 -13 1z"/>
<path d="M541 2342 c-14 -26 -14 -42 -1 -22 7 11 10 11 10 2 0 -7 4 -11 9 -8
10 6 9 31 -1 42 -4 3 -11 -3 -17 -14z"/>
<path d="M1472 2348 c-7 -7 -12 -20 -12 -30 0 -10 -6 -18 -14 -18 -8 0 -16 -7
-20 -15 -4 -12 -2 -13 17 -2 12 6 23 13 25 13 3 2 21 64 18 64 -1 0 -7 -5 -14
-12z"/>
<path d="M1863 2305 c0 -33 2 -45 4 -27 2 18 2 45 0 60 -2 15 -4 0 -4 -33z"/>
<path d="M380 2300 c-6 -11 -7 -20 -3 -20 4 0 -5 -9 -20 -19 -17 -10 -24 -21
-19 -25 6 -4 15 2 21 11 5 10 11 16 13 14 5 -7 51 11 66 25 19 19 7 17 -25 -3
l-26 -17 5 27 c6 32 3 34 -12 7z"/>
<path d="M731 2273 c-6 -10 -11 -14 -11 -9 0 5 -12 -3 -26 -17 -15 -15 -23
-31 -18 -38 5 -8 12 -3 21 15 13 25 23 30 52 26 12 -1 12 1 3 13 -6 7 -9 17
-5 20 3 4 4 7 0 7 -3 0 -11 -8 -16 -17z"/>
<path d="M181 2266 c-1 -16 -4 -17 -13 -8 -15 15 -28 15 -28 1 0 -5 4 -8 9 -5
5 3 12 -2 15 -11 9 -22 30 -2 23 23 -4 18 -5 18 -6 0z"/>
<path d="M1027 2224 c-13 -13 -7 -25 11 -22 9 2 17 -1 16 -7 -1 -5 7 -18 17
-27 28 -27 23 -7 -9 31 -15 18 -30 29 -35 25z"/>
<path d="M1847 2143 c-9 -90 -9 -123 1 -123 4 0 8 43 10 95 2 52 2 95 -1 95
-2 0 -7 -30 -10 -67z"/>
<path d="M1339 2193 c-14 -3 -14 -12 -2 -81 16 -88 14 -282 -4 -303 -6 -8 -12
-34 -14 -59 l-4 -46 30 5 c23 4 25 6 9 9 -16 2 -21 11 -22 32 0 16 4 32 9 35
5 4 9 16 9 28 0 13 7 33 16 45 8 12 13 26 10 31 -4 5 0 12 6 14 9 4 10 8 2 14
-6 4 -11 22 -12 38 -3 83 -10 146 -15 152 -12 11 -8 21 10 25 16 3 16 4 0 20
-20 20 -22 34 -4 41 14 6 -1 6 -24 0z"/>
<path d="M1275 2130 c-4 -11 -11 -18 -16 -14 -5 3 -26 -4 -46 -16 -19 -11 -52
-25 -72 -30 -31 -8 -28 -9 19 -4 51 4 58 2 78 -21 19 -21 20 -28 10 -45 -11
-17 -10 -22 0 -29 13 -8 14 -81 1 -81 -4 0 -1 -21 7 -47 15 -51 34 -79 34 -51
0 9 -5 20 -11 24 -11 6 -8 110 7 272 6 62 1 80 -11 42z"/>
<path d="M2193 2114 c4 -22 7 -63 7 -93 0 -30 3 -52 6 -48 4 3 7 43 7 88 1 61
-3 84 -13 87 -10 4 -12 -4 -7 -34z"/>
<path d="M935 2047 c-33 -5 -75 -16 -93 -24 -31 -14 -32 -16 -16 -28 15 -11
20 -10 30 3 6 8 20 17 30 18 33 5 136 32 142 38 7 7 -17 6 -93 -7z"/>
<path d="M670 1980 c-33 -5 -35 -7 -32 -39 5 -48 -6 -84 -23 -77 -16 6 -16
-15 0 -26 6 -5 6 -8 -1 -8 -7 0 -9 -11 -6 -27 3 -16 -1 -30 -9 -37 -8 -6 -15
-31 -16 -56 -1 -25 -8 -49 -15 -55 -8 -5 -12 -18 -10 -27 2 -11 -3 -18 -12
-18 -9 0 -16 -4 -16 -10 0 -5 4 -10 9 -10 8 0 -17 -90 -28 -100 -3 -3 -7 -21
-7 -40 -1 -19 -6 -36 -13 -38 -6 -2 -11 -16 -11 -31 0 -14 -6 -51 -14 -81 -23
-89 -10 -69 18 27 14 48 53 171 86 273 33 102 72 227 86 278 21 70 30 89 37
77 5 -9 6 -23 3 -31 -6 -17 8 -131 30 -244 39 -199 51 -433 24 -450 -10 -7
-11 -10 -2 -10 7 0 28 25 47 55 35 54 48 88 20 51 -8 -11 -15 -18 -16 -15 0 2
-2 24 -2 49 -1 25 -5 50 -8 55 -4 6 -3 19 2 30 7 19 8 19 8 -2 1 -13 6 -23 11
-23 12 0 13 -6 -5 60 -31 113 -58 239 -79 370 l-21 135 -35 -5z"/>
<path d="M916 1949 c15 -29 21 -34 27 -22 5 8 7 15 5 16 -1 1 -14 11 -27 22
l-23 20 18 -36z"/>
<path d="M550 1960 c-9 -6 -10 -10 -3 -10 6 0 13 -8 15 -17 2 -13 6 -10 15 10
14 29 3 36 -27 17z"/>
<path d="M338 1874 c-67 -90 -75 -104 -61 -104 8 1 135 161 141 179 2 6 -1 11
-7 11 -6 0 -39 -39 -73 -86z"/>
<path d="M505 1873 c-4 -48 -11 -99 -17 -113 -21 -56 12 -1 40 69 l31 73 -21
29 c-12 16 -23 29 -24 29 -1 0 -5 -39 -9 -87z"/>
<path d="M363 1812 c-101 -150 -126 -201 -69 -138 40 44 144 193 170 244 12
24 13 32 4 32 -7 0 -54 -62 -105 -138z"/>
<path d="M430 1804 c-19 -27 -64 -89 -102 -137 -63 -83 -77 -107 -62 -107 9 0
46 40 81 87 15 21 34 42 40 46 7 4 13 15 13 22 0 8 4 15 8 15 12 0 64 98 60
112 -3 7 -20 -10 -38 -38z"/>
<path d="M1919 1814 c-3 -26 4 -70 12 -79 7 -6 8 6 3 35 -7 44 -13 62 -15 44z"/>
<path d="M2225 1690 c-16 -17 -24 -30 -19 -30 13 0 59 48 52 55 -2 3 -17 -9
-33 -25z"/>
<path d="M1900 1607 c0 -59 4 -107 8 -107 8 0 6 200 -3 208 -3 3 -5 -43 -5
-101z"/>
<path d="M1275 1671 c-5 -10 103 -37 111 -28 3 3 -13 8 -35 12 -23 4 -43 11
-47 16 -7 12 -21 12 -29 0z"/>
<path d="M1790 1665 c0 -22 -22 -65 -31 -60 -4 3 -10 1 -14 -5 -4 -6 6 -10 23
-10 27 0 29 2 30 45 1 25 0 45 -3 45 -3 0 -5 -7 -5 -15z"/>
<path d="M910 1651 c-24 -7 -24 -7 -5 -18 18 -11 18 -12 3 -18 -9 -4 -14 -13
-11 -21 3 -8 0 -14 -7 -14 -7 0 -6 -6 4 -16 17 -17 21 -34 8 -34 -9 0 -10 -46
0 -55 9 -9 16 20 23 89 2 33 7 68 11 78 3 10 4 18 2 17 -2 -1 -14 -4 -28 -8z"/>
<path d="M386 1564 c-32 -39 -46 -65 -46 -86 0 -19 4 -28 13 -26 12 4 91 157
84 165 -2 2 -25 -22 -51 -53z"/>
<path d="M1645 1610 c20 -8 92 -14 84 -6 -2 2 -26 6 -54 10 -33 3 -43 2 -30
-4z"/>
<path d="M1828 1513 c5 -83 9 -90 11 -20 0 37 -2 67 -7 67 -4 0 -6 -21 -4 -47z"/>
<path d="M1943 1445 c0 -44 2 -61 4 -37 2 23 2 59 0 80 -2 20 -4 1 -4 -43z"/>
<path d="M1913 1420 c0 -41 2 -58 4 -37 2 20 2 54 0 75 -2 20 -4 3 -4 -38z"/>
<path d="M1930 1258 c0 -45 3 -78 7 -75 9 10 10 157 1 157 -5 0 -8 -37 -8 -82z"/>
<path d="M1776 1217 c-4 -27 -5 -51 -2 -55 3 -3 6 6 6 19 0 14 4 29 9 35 5 5
5 18 1 29 -5 15 -9 8 -14 -28z"/>
<path d="M1918 1088 c-2 -40 -2 -75 0 -77 1 -3 10 3 20 14 9 10 11 15 4 11 -9
-5 -12 5 -10 44 1 28 6 54 10 56 10 6 1 24 -12 24 -4 0 -10 -33 -12 -72z"/>
<path d="M731 1008 c-1 -29 0 -50 2 -48 9 10 16 100 9 100 -5 0 -9 -24 -11
-52z"/>
<path d="M711 882 c-7 -40 -11 -75 -8 -78 7 -7 30 110 25 132 -2 10 -10 -14
-17 -54z"/>
<path d="M1766 921 c-8 -12 -9 -211 -2 -218 3 -4 6 29 7 73 1 43 2 96 3 117 3
38 1 43 -8 28z"/>
<path d="M420 800 c7 -12 21 -25 31 -27 10 -3 19 -9 19 -14 0 -5 7 -9 15 -9 9
0 15 -9 15 -23 0 -20 5 -23 33 -21 33 3 150 -60 241 -130 47 -35 274 -151 282
-143 3 3 -43 32 -103 66 -59 33 -139 83 -178 110 -38 28 -113 73 -165 100 -52
28 -119 65 -149 82 -49 30 -52 30 -41 9z"/>
<path d="M1900 696 c0 -33 4 -55 9 -51 9 5 4 95 -5 104 -2 2 -4 -21 -4 -53z"/>
<path d="M1802 698 c-1 -25 -5 -55 -8 -65 -5 -17 -5 -17 6 0 6 9 9 39 7 65
l-3 47 -2 -47z"/>
<path d="M431 525 c-1 -33 -6 -94 -12 -135 -17 -125 -18 -170 -4 -285 l14
-110 -6 147 c-3 87 0 189 7 250 6 57 10 123 8 148 -4 41 -5 40 -7 -15z"/>
<path d="M2323 220 c0 -41 2 -58 4 -37 2 20 2 54 0 75 -2 20 -4 3 -4 -38z"/>
<path d="M2315 98 c-3 -24 -9 -56 -12 -73 -3 -20 -2 -27 5 -20 9 10 26 135 18
135 -2 0 -7 -19 -11 -42z"/>
</g>
</svg>
