<?xml version="1.0" standalone="no"?>
<!DOCTYPE svg PUBLIC "-//W3C//DTD SVG 20010904//EN"
 "http://www.w3.org/TR/2001/REC-SVG-20010904/DTD/svg10.dtd">
<svg version="1.0" xmlns="http://www.w3.org/2000/svg"
 width="300.000000pt" height="736.000000pt" viewBox="0 0 300.000000 736.000000"
 preserveAspectRatio="xMidYMid meet">
<metadata>
Created by potrace 1.10, written by Peter Selinger 2001-2011
</metadata>
<g transform="translate(0.000000,736.000000) scale(0.100000,-0.100000)"
fill="#000000" stroke="none">
<path d="M1610 7310 c0 -5 19 -10 43 -10 78 0 114 -12 171 -55 70 -52 127
-133 216 -310 75 -147 94 -218 88 -328 -2 -42 0 -70 4 -64 4 7 8 49 8 95 0 63
-6 102 -26 160 -26 80 -134 295 -185 368 -40 59 -116 121 -168 139 -50 17
-151 20 -151 5z"/>
<path d="M1503 7298 c18 -6 36 -6 55 0 24 9 20 10 -28 10 -48 0 -52 -1 -27
-10z"/>
<path d="M1285 7255 c-25 -12 -26 -14 -5 -9 28 7 60 23 45 23 -5 0 -23 -6 -40
-14z"/>
<path d="M1650 7245 c7 -8 17 -15 22 -15 6 0 5 7 -2 15 -7 8 -17 15 -22 15 -6
0 -5 -7 2 -15z"/>
<path d="M1774 7218 c16 -21 30 -38 33 -38 8 0 -16 36 -38 55 -19 16 -18 13 5
-17z"/>
<path d="M1155 7211 c-54 -25 -125 -102 -166 -181 -19 -35 -40 -71 -47 -78
-21 -23 -122 -235 -122 -257 0 -12 -4 -25 -8 -31 -25 -27 -41 -221 -42 -500
l0 -131 -39 -49 c-21 -27 -46 -63 -55 -81 -9 -18 -37 -47 -64 -64 -45 -31
-201 -181 -252 -244 -96 -117 -164 -237 -203 -360 -51 -161 -86 -291 -92 -340
-4 -27 -20 -82 -36 -122 -27 -66 -29 -82 -29 -198 0 -118 2 -129 30 -191 35
-78 82 -139 121 -160 l29 -15 0 -224 c0 -218 1 -225 23 -249 12 -14 38 -33 57
-44 34 -18 35 -21 41 -88 4 -38 14 -89 23 -113 22 -60 20 -82 -13 -148 -16
-32 -32 -72 -36 -89 -8 -39 14 -93 56 -142 29 -33 31 -38 23 -86 -4 -28 -7
-61 -6 -73 0 -13 1 -48 2 -78 1 -30 -3 -79 -9 -107 -13 -71 -20 -131 -27 -263
-8 -124 1 -189 51 -400 34 -144 42 -236 47 -545 l2 -125 6 120 c10 191 1 389
-22 475 -11 41 -22 88 -24 103 -2 15 -11 56 -21 90 -23 85 -23 344 0 480 10
54 20 137 22 185 3 48 10 113 16 146 l10 59 -34 36 c-75 78 -75 104 -3 236 22
41 20 66 -10 154 -24 71 -25 88 -8 148 5 19 -2 26 -60 52 l-66 30 -2 242 -3
243 -40 20 c-53 28 -99 98 -131 203 -32 101 -30 161 11 273 14 41 37 122 50
180 13 58 30 121 38 140 8 19 18 55 22 78 10 59 59 193 88 240 13 20 32 54 41
74 37 77 251 306 339 362 61 39 73 52 82 87 3 14 33 52 66 85 40 40 64 73 74
105 9 26 23 53 31 59 17 15 19 -1 2 -19 -11 -10 -10 -11 3 -6 12 4 27 -9 53
-45 20 -28 44 -53 54 -56 9 -2 48 -21 85 -40 38 -19 71 -33 74 -30 3 3 -5 10
-18 16 -21 9 -18 10 15 6 47 -6 129 -76 100 -86 -14 -5 -14 -7 2 -20 11 -9 15
-10 10 -2 -10 17 14 15 35 -4 14 -13 16 -21 7 -46 -7 -20 -9 -83 -5 -175 5
-123 8 -147 23 -158 10 -7 24 -11 30 -8 21 8 36 -34 43 -120 1 -5 7 -5 14 -2
6 4 3 -1 -8 -10 -11 -9 -20 -20 -20 -26 0 -12 -27 -29 -37 -23 -4 3 -3 16 2
30 6 14 7 31 3 37 -4 7 -8 21 -9 32 -1 11 -6 31 -12 45 l-11 25 0 -27 c-1 -14
5 -29 12 -31 6 -3 8 -6 2 -6 -15 -1 -6 -151 9 -151 7 0 28 16 47 36 18 20 64
56 101 80 36 25 69 51 72 59 3 8 17 15 31 15 14 0 25 1 25 3 0 1 4 17 9 35 9
30 8 32 -17 32 -23 -1 -24 -2 -10 -11 16 -9 16 -11 1 -29 -9 -10 -20 -17 -25
-14 -4 3 -8 0 -8 -5 0 -6 -11 -11 -24 -11 -14 0 -31 -8 -38 -18 -7 -10 -21
-21 -30 -25 -10 -3 -18 -14 -18 -23 0 -37 -26 -2 -52 72 -16 43 -33 89 -39
101 -15 27 -4 45 24 38 12 -3 31 1 42 9 17 13 18 15 3 16 -9 0 -19 -4 -22 -9
-8 -12 -76 6 -96 25 -12 12 -12 14 0 14 13 0 13 1 0 10 -12 8 -12 10 3 15 12
5 14 12 8 23 -13 26 -14 152 -1 152 33 0 88 -37 161 -109 56 -55 94 -84 119
-91 51 -14 118 -66 140 -110 11 -21 16 -40 13 -44 -4 -3 -1 -6 5 -6 7 0 12 17
12 43 0 23 7 54 14 69 13 25 13 29 -2 38 -11 6 -12 9 -4 10 9 0 11 7 7 20 -3
11 1 57 10 103 17 81 16 85 -3 122 l-19 38 1 -74 c0 -56 -5 -85 -21 -121 -17
-37 -19 -48 -8 -48 7 0 16 10 18 23 3 12 4 0 2 -28 -2 -27 -7 -60 -12 -73 l-9
-23 -18 20 c-11 12 -25 21 -33 21 -7 0 -13 4 -13 8 0 5 -12 15 -27 22 l-28 13
30 7 30 6 -32 5 c-20 3 -33 1 -33 -5 0 -8 -3 -8 -8 0 -4 5 -28 18 -54 28 -27
10 -48 22 -48 27 0 24 -91 99 -160 132 -49 23 -81 45 -90 62 -16 30 -18 277
-2 283 5 1 30 -17 55 -40 26 -24 57 -51 69 -61 38 -30 199 -107 224 -107 35 0
106 35 134 65 28 32 25 30 -51 -20 -45 -31 -59 -35 -89 -30 -56 11 -171 79
-259 156 -45 38 -85 68 -89 66 -4 -3 -16 -1 -27 3 -19 7 -18 9 8 19 15 6 27
13 27 15 0 18 -67 96 -82 96 -24 0 -23 -12 3 -28 12 -7 18 -16 15 -19 -3 -4
-1 -12 5 -19 7 -9 7 -19 -1 -34 -9 -18 -8 -25 7 -42 15 -17 18 -39 19 -129 1
-101 -5 -135 -21 -109 -3 5 -18 10 -33 10 -15 0 -38 6 -52 13 -14 8 -38 13
-52 13 -18 -1 -28 4 -32 17 -2 11 -9 16 -15 12 -6 -3 -14 1 -17 9 -3 9 -10 14
-14 11 -4 -3 -13 1 -19 9 -9 10 -8 16 4 26 8 7 15 17 15 23 0 6 -6 2 -14 -8
-13 -18 -15 -18 -30 -2 -10 9 -14 17 -9 17 4 0 -8 9 -27 19 l-35 19 -22 -23
c-13 -13 -23 -28 -23 -33 0 -19 -31 -84 -38 -78 -10 11 -11 362 0 476 5 58 16
128 25 155 20 62 104 234 144 293 16 24 41 67 55 94 30 59 124 158 151 158 10
0 25 5 33 10 27 18 -11 11 -55 -9z"/>
<path d="M1520 7111 c0 -23 2 -41 4 -41 8 0 12 71 4 76 -4 3 -8 -13 -8 -35z"/>
<path d="M1271 7120 c0 -8 13 -44 30 -80 17 -36 28 -54 25 -39 -7 35 -55 138
-55 119z"/>
<path d="M1230 7075 c0 -19 2 -35 4 -35 2 0 6 16 8 35 2 19 0 35 -4 35 -4 0
-8 -16 -8 -35z"/>
<path d="M1649 7066 c18 -19 30 -39 27 -45 -4 -5 0 -13 7 -18 8 -4 25 -26 39
-48 14 -22 33 -47 43 -55 16 -13 17 -13 9 0 -52 85 -128 189 -142 195 -9 3 -2
-9 17 -29z"/>
<path d="M1585 7056 c52 -44 59 -51 97 -96 21 -25 38 -38 38 -30 0 9 -20 38
-45 66 -24 28 -42 54 -40 58 3 3 2 4 -1 2 -3 -2 -22 2 -42 10 l-37 15 30 -25z"/>
<path d="M1730 7066 c0 -5 55 -147 70 -181 7 -16 8 -12 8 18 -1 20 -5 37 -10
37 -4 0 -8 5 -8 11 0 13 -50 119 -56 119 -2 0 -4 -2 -4 -4z"/>
<path d="M1429 7051 c12 -8 11 -20 -8 -79 -12 -39 -21 -81 -20 -94 4 -39 -1
-59 -11 -53 -6 4 -7 -1 -3 -11 5 -14 9 -12 20 11 8 15 13 36 10 46 -3 10 -2
19 1 19 4 0 8 15 9 33 1 17 7 49 14 69 13 40 7 68 -13 68 -10 0 -9 -3 1 -9z"/>
<path d="M1481 6999 c-7 -27 -11 -52 -9 -54 2 -3 10 18 17 46 7 27 11 52 9 54
-2 3 -10 -18 -17 -46z"/>
<path d="M1350 7026 c0 -8 5 -18 10 -21 6 -3 10 1 10 9 0 8 -4 18 -10 21 -5 3
-10 -1 -10 -9z"/>
<path d="M1513 7017 c-3 -36 -45 -127 -56 -120 -6 4 -7 1 -3 -6 5 -7 -8 -38
-30 -74 -42 -71 -52 -91 -30 -62 8 11 20 25 26 32 5 7 10 15 10 18 0 3 8 15
18 25 10 11 32 47 48 80 28 57 29 58 42 37 13 -22 13 -22 8 3 -3 14 -6 37 -6
51 0 32 -25 47 -27 16z"/>
<path d="M1818 7005 c2 -14 8 -22 13 -19 5 3 5 14 -1 25 -14 26 -18 24 -12 -6z"/>
<path d="M1211 6963 c-6 -32 -13 -74 -15 -93 l-4 -35 13 26 c14 26 33 159 22
159 -3 0 -10 -26 -16 -57z"/>
<path d="M1610 6995 c0 -3 11 -23 25 -43 14 -20 25 -31 25 -23 0 7 -11 26 -25
43 -14 16 -25 27 -25 23z"/>
<path d="M1086 6933 c-28 -49 -30 -70 -2 -28 18 27 38 75 32 75 -3 0 -16 -21
-30 -47z"/>
<path d="M1267 6953 c-4 -3 -6 -22 -6 -42 l1 -36 8 40 c8 42 8 49 -3 38z"/>
<path d="M1836 6915 c8 -66 12 -78 24 -70 8 5 7 11 -1 21 -6 8 -9 25 -7 38 3
13 -1 32 -9 42 -11 16 -12 12 -7 -31z"/>
<path d="M1910 6910 c-11 -26 -10 -33 2 -48 8 -9 21 -31 29 -49 8 -19 23 -34
38 -38 31 -8 82 -50 73 -60 -4 -5 -1 -5 5 -1 10 5 10 11 0 26 -6 11 -17 20
-23 20 -6 0 -30 18 -53 40 -40 39 -53 59 -29 44 7 -4 8 -3 4 4 -4 7 -13 12
-21 12 -18 0 -24 20 -13 49 13 35 3 36 -12 1z"/>
<path d="M1536 6857 c4 -10 16 -15 35 -14 32 2 41 17 10 17 -11 0 -27 3 -35 6
-12 5 -15 2 -10 -9z"/>
<path d="M1136 6777 c-21 -56 -20 -69 3 -31 24 39 35 74 23 74 -5 0 -17 -19
-26 -43z"/>
<path d="M1296 6754 c-4 -14 -5 -28 -3 -31 3 -2 8 8 11 23 4 14 5 28 3 31 -3
2 -8 -8 -11 -23z"/>
<path d="M1485 6770 c-16 -5 -43 -25 -60 -44 -29 -34 -54 -41 -162 -48 -7 -1
-13 -5 -13 -11 0 -5 17 -6 39 -2 33 5 43 3 63 -17 l23 -23 3 23 c5 31 32 29
32 -3 0 -14 -3 -26 -7 -26 -5 -1 -17 -3 -28 -4 -11 -2 -31 -7 -45 -12 -48 -18
-74 -11 -92 27 -14 28 -18 30 -18 13 0 -12 -3 -30 -7 -40 -6 -16 -5 -17 11 -4
16 13 17 13 14 -5 -3 -16 2 -19 32 -16 19 2 59 9 88 17 l52 13 16 -30 c13 -25
14 -32 2 -40 -10 -8 -10 -9 2 -5 8 2 26 -4 39 -14 15 -12 40 -19 68 -19 27 0
42 -4 38 -10 -10 -16 7 -12 42 10 17 10 37 28 43 39 6 11 25 25 43 31 29 9 29
9 4 6 -23 -3 -27 0 -21 13 6 15 9 35 12 89 2 19 8 22 42 22 30 0 40 -4 40 -16
0 -9 -6 -14 -13 -11 -7 3 -24 -2 -38 -9 -13 -8 -17 -14 -9 -13 47 4 56 -1 69
-46 7 -25 25 -55 40 -68 15 -12 27 -26 28 -30 1 -5 5 -12 9 -15 4 -4 4 -1 -1
7 -6 11 -2 13 22 8 34 -7 101 6 117 23 8 10 6 10 -11 1 -12 -6 -44 -11 -71
-11 -44 0 -53 4 -81 35 -33 38 -56 105 -47 140 6 22 4 23 -50 19 -54 -3 -56
-2 -69 29 -8 18 -14 27 -15 20 0 -9 -9 -8 -35 3 -38 15 -94 17 -140 4z m127
-10 c42 -12 78 -51 78 -86 0 -20 -5 -23 -40 -22 -27 0 -40 5 -40 14 0 8 -10
14 -22 14 -21 -1 -21 -2 -5 -11 9 -6 15 -14 12 -20 -9 -14 -56 -10 -85 6 -14
8 -34 14 -45 14 -11 0 0 -8 25 -16 49 -18 48 -19 -22 -26 l-48 -5 0 42 c0 82
87 125 192 96z m57 -129 c18 -12 7 -44 -31 -87 -28 -31 -35 -34 -88 -34 -54 0
-60 3 -89 35 -29 34 -40 64 -23 66 4 0 50 6 102 13 121 18 113 17 129 7z"/>
<path d="M1544 6719 c-3 -5 -24 -9 -47 -9 -23 0 -49 -5 -57 -10 -10 -7 14 -10
78 -10 50 0 92 2 92 4 0 11 -60 34 -66 25z"/>
<path d="M1550 6560 l-45 -7 45 -1 c25 0 56 4 70 8 l25 8 -25 0 c-14 -1 -45
-4 -70 -8z"/>
<path d="M1854 6770 c-12 -5 -26 -15 -30 -22 -6 -11 -5 -11 8 0 9 7 35 17 59
21 35 7 38 9 14 9 -16 1 -40 -3 -51 -8z"/>
<path d="M1011 6722 c-7 -17 -11 -37 -8 -44 3 -7 6 -4 6 8 1 11 6 25 12 31 6
6 9 17 7 24 -2 7 -10 -2 -17 -19z"/>
<path d="M2010 6720 c0 -9 4 -20 9 -25 5 -6 11 -19 14 -30 4 -16 5 -15 6 6 0
14 -6 34 -14 45 -11 15 -14 16 -15 4z"/>
<path d="M1815 6712 c-14 -14 0 -21 53 -28 31 -3 63 -11 70 -16 14 -12 16 0 3
20 -8 13 -116 33 -126 24z"/>
<path d="M1986 6663 c4 -21 7 -44 7 -50 0 -18 34 -16 41 2 3 10 -1 19 -12 23
-10 4 -18 15 -18 25 -2 33 -4 37 -14 37 -7 0 -8 -14 -4 -37z"/>
<path d="M2052 6693 c1 -5 -2 -43 -6 -85 -5 -50 -4 -107 4 -159 14 -100 2
-169 -36 -194 -14 -9 -29 -13 -34 -10 -5 3 -31 -14 -59 -37 -27 -24 -70 -60
-94 -80 -43 -36 -45 -39 -50 -105 -4 -69 12 -121 34 -107 14 8 52 -19 116 -81
46 -46 53 -57 47 -80 -7 -27 -57 -61 -74 -50 -6 3 -10 -1 -10 -10 0 -9 -4 -13
-10 -10 -5 3 -10 -1 -10 -9 0 -8 9 -18 21 -21 16 -5 31 4 69 44 42 44 69 87
58 95 -74 53 -128 103 -128 119 0 18 5 19 50 14 29 -4 50 -2 50 3 0 20 16 8
37 -28 l22 -37 1 28 c0 25 3 27 23 22 31 -9 77 -61 77 -88 0 -12 9 -114 20
-227 20 -207 46 -577 47 -660 0 -25 11 -79 24 -120 22 -72 23 -88 24 -400 1
-269 4 -334 18 -380 9 -30 24 -93 33 -140 15 -74 34 -130 114 -330 10 -25 30
-70 44 -100 32 -67 33 -102 4 -140 -36 -49 -46 -308 -17 -438 5 -24 7 -47 4
-52 -3 -5 -56 -47 -119 -94 -135 -102 -256 -162 -359 -177 -40 -6 -112 -19
-162 -30 -90 -20 -90 -20 -205 0 -63 10 -127 24 -143 30 -15 6 -49 13 -76 15
-143 13 -216 38 -366 127 -44 26 -117 68 -162 94 -45 27 -105 65 -133 87 -28
21 -90 58 -138 83 -48 24 -111 59 -141 76 l-53 32 17 -26 c9 -14 30 -32 46
-39 19 -9 29 -20 29 -35 0 -19 4 -22 35 -18 26 4 47 -2 84 -25 26 -17 53 -30
60 -30 6 0 11 -4 11 -9 0 -6 11 -16 24 -23 13 -7 39 -25 58 -40 19 -15 93 -57
164 -93 137 -69 130 -73 -30 -18 -152 53 -252 104 -402 208 -10 7 -17 6 -23
-3 -7 -11 -15 -11 -46 2 -30 13 -36 13 -32 2 3 -7 0 -19 -6 -25 -8 -8 -4 -11
15 -11 21 0 28 -6 31 -27 l4 -28 2 26 c2 42 40 43 100 3 95 -64 303 -161 381
-177 26 -6 101 -31 135 -47 83 -37 196 -81 223 -86 34 -7 52 -28 52 -62 0 -23
101 -120 164 -157 39 -23 59 -27 165 -32 118 -5 120 -5 144 20 14 13 35 54 46
90 30 98 38 107 92 107 52 0 133 25 228 72 64 31 85 45 123 81 13 12 18 13 18
4 0 -13 33 14 132 106 61 56 67 40 53 -129 -6 -64 -4 -87 9 -111 13 -26 14
-41 6 -84 -14 -71 -13 -75 15 -103 39 -39 86 -43 137 -13 81 48 155 127 189
202 17 39 46 82 63 97 29 25 31 31 37 117 4 57 12 100 23 115 23 36 22 173 -1
214 -15 27 -16 38 -5 100 12 74 1 408 -18 547 -6 39 -15 110 -20 159 -11 97
-22 173 -45 306 -7 47 -19 119 -25 160 -19 129 -83 354 -145 515 -12 33 -26
78 -30 99 -3 22 -27 84 -51 139 -25 55 -62 140 -83 191 -20 50 -58 123 -84
161 -26 39 -62 93 -81 122 -35 51 -85 92 -163 132 -38 19 -42 25 -49 68 -13
90 -56 142 -123 149 -23 2 -60 6 -82 8 -23 2 -56 -2 -75 -10 -19 -8 -46 -11
-63 -8 -30 6 -31 8 -31 67 0 55 3 62 33 88 101 89 139 119 152 119 23 0 73 49
84 83 12 41 20 138 11 132 -8 -5 -20 134 -19 223 0 30 -4 52 -10 52 -6 0 -10
-3 -9 -7z m210 -1019 c37 -25 76 -57 86 -70 9 -14 32 -46 50 -71 66 -89 106
-165 156 -292 21 -52 51 -121 67 -154 17 -33 32 -67 34 -76 14 -68 28 -118 40
-147 38 -91 121 -358 130 -419 2 -11 9 -58 15 -105 7 -47 18 -112 25 -145 8
-33 18 -114 25 -180 6 -66 17 -156 25 -200 16 -93 23 -164 35 -376 7 -125 5
-170 -7 -239 l-16 -85 27 -39 c32 -48 33 -95 4 -156 -15 -32 -23 -73 -27 -140
-6 -95 -6 -95 -37 -109 -24 -10 -35 -24 -44 -55 -29 -101 -87 -170 -194 -236
-31 -19 -42 -21 -57 -12 -10 7 -28 12 -39 12 -23 0 -24 3 -9 87 10 56 9 69 -6
97 -15 27 -17 45 -10 102 8 76 8 91 0 244 -6 107 -25 167 -63 198 -9 6 -11 12
-5 12 7 0 9 22 5 65 l-5 65 52 0 c49 0 51 1 51 27 0 29 -25 63 -47 63 -7 0
-13 5 -13 11 0 6 7 9 15 5 19 -7 19 -5 -5 81 -11 39 -20 86 -21 105 -2 47 -9
69 -20 62 -5 -3 -6 -10 -3 -16 4 -5 -4 -4 -17 2 -21 12 -21 14 -6 25 15 11 16
14 2 25 -13 11 -14 10 -9 -5 5 -13 4 -16 -4 -11 -7 4 -12 16 -12 27 0 10 -4
19 -8 19 -15 0 -32 49 -32 91 0 27 -4 38 -11 33 -8 -4 -9 0 -4 15 4 15 2 21
-8 21 -10 0 -14 9 -13 30 1 17 -1 30 -5 30 -11 0 -27 53 -31 105 -1 11 -6 23
-10 26 -5 3 -10 21 -11 40 -1 19 -5 37 -9 40 -14 9 -12 90 1 98 10 6 9 10 -4
15 -10 3 -13 11 -9 18 4 7 9 42 10 78 5 116 13 234 18 265 16 102 17 126 6
140 -7 8 -17 15 -23 15 -6 0 -3 -6 8 -13 20 -15 13 -39 -9 -31 -28 11 -41 299
-23 524 8 105 11 118 38 151 31 39 55 96 46 106 -3 3 -9 -8 -13 -23 -4 -16
-15 -36 -26 -45 -10 -9 -18 -21 -18 -28 0 -6 -4 -11 -9 -11 -11 0 -21 60 -21
126 0 73 -11 144 -21 138 -5 -3 -9 0 -9 7 0 7 -11 27 -25 45 -45 59 -33 59 57
-2z m-32 -195 c10 -62 14 -197 6 -188 -5 5 -46 284 -45 302 2 26 29 -55 39
-114z m257 -2521 c-2 -13 -4 -3 -4 22 0 25 2 35 4 23 2 -13 2 -33 0 -45z
m-1082 -424 c-17 -13 -18 -16 -5 -24 11 -7 16 -5 18 10 3 16 11 20 43 18 23
-1 43 -7 48 -16 6 -10 13 -12 25 -5 12 6 40 5 84 -3 37 -7 97 -14 133 -15 57
-2 70 1 90 20 36 34 35 8 -4 -95 l-34 -89 -125 0 c-138 0 -129 -3 -238 85 -79
62 -95 87 -86 126 7 27 9 28 21 11 14 -20 31 -6 19 16 -4 6 2 4 12 -6 19 -18
19 -19 -1 -33z"/>
<path d="M2377 5332 c-78 -78 -94 -97 -52 -62 65 55 137 130 123 130 -2 0 -33
-31 -71 -68z"/>
<path d="M2410 5060 c-11 -8 -7 -9 15 -4 37 8 45 14 19 14 -10 0 -26 -5 -34
-10z"/>
<path d="M2700 3725 c0 -8 2 -15 4 -15 2 0 11 -3 20 -6 23 -9 20 9 -4 24 -17
10 -20 10 -20 -3z"/>
<path d="M2657 3333 c6 -15 13 -16 31 -4 10 6 7 10 -11 13 -18 4 -24 1 -20 -9z"/>
<path d="M2740 3150 c61 -11 125 -35 154 -59 16 -14 18 -14 14 -1 -8 28 -86
60 -156 65 l-67 4 55 -9z"/>
<path d="M2542 3134 c-23 -16 -27 -45 -11 -79 6 -14 7 -8 3 23 -4 33 -3 42 9
42 8 0 20 7 27 15 16 20 0 19 -28 -1z"/>
<path d="M2820 2984 c1 -63 3 -84 10 -72 11 18 8 143 -3 155 -4 3 -7 -34 -7
-83z"/>
<path d="M2573 2840 c-13 -5 -23 -14 -23 -20 0 -7 6 -8 18 -2 9 5 40 12 69 14
41 4 50 2 46 -9 -4 -11 1 -12 19 -8 26 7 132 -42 154 -71 6 -8 16 -14 22 -14
6 0 12 -8 14 -17 3 -13 6 -15 11 -6 14 22 -73 91 -152 123 -54 21 -139 26
-178 10z"/>
<path d="M2665 2778 c-2 -7 -6 -26 -8 -43 -15 -92 -22 -113 -48 -147 -38 -48
-37 -60 3 -40 18 8 27 17 21 19 -6 2 -9 13 -6 23 6 22 18 26 28 10 3 -5 15
-10 26 -10 10 0 19 -3 19 -7 -1 -13 -37 -53 -48 -53 -6 0 -8 -9 -5 -19 4 -14
-3 -24 -26 -35 -37 -20 -39 -25 -7 -22 31 3 53 21 62 49 4 12 13 27 21 35 7 8
14 31 14 51 1 80 7 152 13 158 8 9 -24 43 -41 43 -7 0 -15 -6 -18 -12z"/>
<path d="M1168 6647 c-3 -15 -2 -27 3 -27 13 0 17 14 9 35 -6 17 -7 16 -12 -8z"/>
<path d="M1115 6628 c-3 -7 -1 -26 4 -43 9 -29 10 -28 8 13 -1 43 -4 51 -12
30z"/>
<path d="M1203 6543 c-1 -16 -6 -54 -10 -85 -5 -34 -5 -56 0 -55 5 1 20 -18
34 -43 42 -78 45 -74 38 55 -6 103 -10 123 -27 138 -27 23 -33 22 -35 -10z
m45 -133 c1 -42 0 -44 -13 -26 -16 21 -21 107 -7 120 9 10 19 -36 20 -94z"/>
<path d="M862 6501 c-16 -45 -15 -50 4 -23 8 12 14 30 12 40 -3 11 -8 6 -16
-17z"/>
<path d="M1036 6483 c-15 -51 -17 -91 -5 -98 7 -5 10 -4 6 2 -4 6 -3 33 2 59
9 49 8 72 -3 37z"/>
<path d="M1610 6405 c-46 -8 -64 -13 -45 -15 l30 -2 -30 -7 c-16 -4 -33 -3
-36 2 -7 10 -149 -9 -183 -24 -16 -7 -12 -8 16 -4 21 3 89 8 153 10 64 2 120
7 126 10 5 4 20 8 34 11 32 6 75 22 75 29 0 8 -57 4 -140 -10z"/>
<path d="M1767 6408 c9 -10 32 -15 75 -15 72 0 54 12 -34 23 -46 6 -51 5 -41
-8z"/>
<path d="M1550 6290 c-30 -5 -82 -9 -115 -10 l-60 -2 55 -9 c30 -4 73 -4 95 1
22 5 58 7 80 5 28 -3 34 -1 20 4 -16 7 -11 10 25 13 l45 5 -45 0 c-25 0 -70
-3 -100 -7z"/>
<path d="M984 6236 c-3 -8 -4 -23 -2 -33 3 -11 6 -6 9 15 6 34 2 42 -7 18z"/>
<path d="M746 5881 c-7 -10 5 -15 30 -12 7 1 24 -3 38 -9 26 -9 26 -11 26
-110 0 -85 3 -105 20 -128 23 -31 44 -148 44 -237 0 -38 -8 -84 -23 -124 -21
-58 -22 -67 -10 -132 9 -51 9 -75 1 -93 -11 -24 -37 -29 -50 -10 -11 16 -29
10 -51 -16 -11 -14 -20 -20 -21 -13 0 7 -9 17 -20 23 -11 6 -20 7 -19 3 3 -17
-1 -36 -7 -31 -3 4 -17 0 -31 -7 -15 -8 -30 -12 -35 -9 -4 3 -8 0 -8 -6 0 -8
-7 -9 -17 -5 -10 4 -30 8 -45 10 -15 2 -37 9 -49 15 -11 7 -22 10 -24 8 -2 -2
21 -16 51 -32 69 -36 75 -61 9 -36 -23 9 -26 8 -21 -5 3 -9 0 -15 -9 -15 -8 0
-15 -4 -15 -10 0 -5 8 -7 18 -4 16 5 16 5 -1 -6 -9 -6 -15 -15 -12 -20 3 -5
-3 -14 -14 -19 -14 -8 -21 -8 -24 2 -3 7 -6 5 -6 -5 -1 -10 -12 -20 -26 -24
-15 -4 -25 -13 -25 -24 0 -48 40 -28 135 66 58 57 82 73 135 92 74 25 185 52
247 59 37 4 46 11 72 51 30 47 74 142 66 142 -3 0 -14 -19 -26 -41 -24 -48
-31 -58 -78 -108 -53 -56 -48 -22 11 74 43 69 59 88 82 92 25 5 36 20 88 130
32 67 64 146 71 173 13 54 28 60 38 14 5 -20 7 -11 7 31 l1 60 -77 46 c-42 25
-133 81 -200 124 -111 71 -130 79 -182 83 -36 3 -60 0 -64 -7z m398 -214 c26
-15 44 -32 41 -37 -3 -5 0 -7 8 -4 23 9 28 -11 13 -52 -8 -22 -15 -31 -15 -20
-1 31 -9 15 -16 -34 -7 -53 -26 -123 -35 -130 -4 -3 -20 -33 -36 -67 -16 -35
-32 -63 -36 -63 -4 0 -13 -7 -22 -15 -8 -9 -34 -24 -57 -34 -23 -11 -35 -21
-27 -23 10 -4 7 -16 -12 -52 -36 -67 -47 -62 -55 25 -3 35 0 64 9 84 33 70 39
182 15 261 -16 50 -18 78 -13 182 5 87 4 122 -4 122 -6 0 -9 6 -6 14 4 11 32
-5 104 -57 54 -40 119 -84 144 -100z m-244 31 c0 -21 -5 -38 -11 -38 -6 0 -8
9 -4 20 4 11 2 20 -4 20 -6 0 -11 17 -11 37 0 35 1 36 15 17 8 -10 15 -36 15
-56z"/>
<path d="M695 5819 c-25 -23 -55 -58 -66 -78 -12 -20 -40 -57 -61 -83 -22 -27
-33 -48 -26 -47 15 0 68 70 97 128 11 21 41 57 67 80 26 22 44 41 40 41 -3 0
-27 -19 -51 -41z"/>
<path d="M2095 5806 c0 -41 1 -43 12 -22 7 13 9 33 6 44 -9 36 -18 25 -18 -22z"/>
<path d="M1255 5800 c2 -27 15 -38 15 -12 0 11 -4 23 -8 26 -5 3 -8 -4 -7 -14z"/>
<path d="M2080 5710 c-25 -25 -61 -54 -80 -65 -19 -11 -36 -29 -38 -40 -2 -11
-10 -27 -17 -35 -17 -19 -33 -470 -17 -470 6 0 14 5 17 10 3 6 2 10 -3 10 -6
0 -8 19 -5 43 3 23 6 51 6 62 0 11 6 24 11 28 8 6 7 10 -1 13 -13 6 -6 35 10
45 5 4 7 11 3 17 -10 16 -17 247 -7 236 4 -5 44 -83 87 -174 63 -133 79 -174
79 -212 0 -27 3 -48 6 -48 4 0 10 -30 14 -67 3 -38 9 -84 12 -103 13 -82 5
-300 -16 -439 -24 -163 -28 -338 -7 -382 4 -10 6 -25 4 -34 -2 -10 3 -20 11
-23 11 -3 12 3 7 29 -15 71 -24 214 -15 226 7 7 6 12 -2 15 -8 3 -9 9 -4 18 5
8 8 31 7 50 -2 28 0 32 8 20 9 -11 10 -1 7 42 -2 32 0 55 5 52 5 -4 6 10 3 30
-4 20 -3 36 1 36 18 0 14 230 -5 440 -13 131 -21 297 -22 425 0 116 -4 228 -7
250 l-7 40 -45 -45z m32 -144 c0 -44 0 -110 -1 -146 -2 -59 -3 -63 -16 -45 -8
11 -19 26 -25 33 -6 7 -8 17 -4 24 4 6 3 8 -4 4 -10 -6 -28 30 -24 47 1 4 -2
7 -7 7 -5 0 -16 18 -25 39 -21 53 -7 94 39 115 19 9 37 21 41 28 14 22 26 -26
26 -106z"/>
<path d="M797 5734 c-3 -4 1 -20 9 -36 9 -17 18 -28 21 -25 2 3 -1 16 -8 29
-7 12 -12 26 -11 31 2 9 -2 9 -11 1z"/>
<path d="M1259 5713 c0 -5 -2 -16 -4 -25 -2 -10 1 -20 6 -24 5 -3 9 9 9 25 0
17 -2 31 -5 31 -3 0 -5 -3 -6 -7z"/>
<path d="M630 5620 c-11 -11 -22 -15 -25 -10 -8 12 -25 13 -25 2 0 -5 19 -17
43 -27 113 -47 166 -78 215 -124 28 -28 52 -46 52 -41 0 21 -83 99 -126 119
-28 13 -42 26 -38 33 4 7 3 8 -5 4 -6 -4 -25 -4 -42 -1 -24 6 -28 9 -18 21 7
9 8 14 1 14 -6 0 -12 -6 -15 -12 -2 -7 -8 -10 -12 -6 -5 5 0 17 10 28 23 26
11 26 -15 0z"/>
<path d="M1500 5625 c-14 -8 -20 -14 -15 -14 6 0 21 6 35 14 14 8 21 14 15 14
-5 0 -21 -6 -35 -14z"/>
<path d="M493 5612 c-15 -9 -78 -61 -112 -90 -16 -15 -9 -12 19 7 65 44 147
117 93 83z"/>
<path d="M1560 5611 c0 -8 -6 -11 -16 -7 -9 4 -23 1 -31 -6 -8 -7 -21 -13 -28
-14 -12 -2 -65 -34 -65 -39 0 -2 11 -2 24 -1 13 0 22 4 20 8 -3 4 7 10 21 14
14 3 25 10 25 15 0 5 11 9 24 9 25 0 43 16 32 27 -3 4 -6 1 -6 -6z"/>
<path d="M1604 5565 c-10 -8 -14 -15 -7 -15 6 0 9 -9 5 -22 -3 -14 -2 -19 6
-14 7 4 12 18 12 31 0 13 6 26 13 28 6 3 7 6 1 6 -5 1 -19 -6 -30 -14z"/>
<path d="M565 5550 c-3 -5 3 -10 14 -10 12 0 21 5 21 10 0 6 -6 10 -14 10 -8
0 -18 -4 -21 -10z"/>
<path d="M1642 5538 c-6 -6 -12 -16 -12 -22 0 -6 5 -5 12 2 7 7 17 8 30 1 12
-6 18 -6 18 1 0 5 -6 10 -14 10 -8 0 -16 5 -18 10 -2 7 -8 6 -16 -2z"/>
<path d="M1880 5478 c-31 -55 -39 -103 -17 -111 10 -4 10 -6 0 -6 -7 -1 -13
-11 -13 -23 0 -22 -1 -21 -14 4 -8 15 -12 37 -9 50 4 18 3 20 -6 8 -7 -9 -11
-10 -11 -3 0 6 5 15 10 18 13 8 13 35 -1 35 -5 0 -8 -4 -5 -9 3 -5 0 -11 -7
-14 -8 -3 -13 -13 -12 -24 4 -35 17 -73 26 -73 5 0 7 -19 3 -42 -4 -28 -2 -38
4 -30 7 11 11 8 15 -10 4 -12 2 -24 -3 -26 -13 -5 -13 -32 -1 -32 16 0 22 36
13 77 -6 28 -5 42 3 50 7 7 15 10 17 8 2 -3 3 15 1 39 -2 29 2 49 11 59 8 8
13 17 10 20 -3 2 2 23 9 46 8 22 13 41 11 41 -2 0 -17 -24 -34 -52z"/>
<path d="M585 5496 c17 -14 35 -25 40 -25 6 0 2 4 -8 10 -9 6 -15 14 -12 20 4
5 2 9 -4 9 -5 0 -18 3 -28 6 -11 4 -6 -4 12 -20z"/>
<path d="M680 5490 c0 -6 7 -13 15 -17 24 -9 27 1 5 15 -13 8 -20 8 -20 2z"/>
<path d="M1696 5458 c3 -24 9 -47 14 -53 4 -5 8 -14 8 -18 0 -5 4 -12 8 -15 4
-4 3 4 -1 18 -4 14 -10 44 -12 68 -3 23 -9 42 -13 42 -5 0 -7 -19 -4 -42z"/>
<path d="M502 5481 c-11 -6 -9 -9 5 -13 12 -3 20 0 20 8 0 16 -6 17 -25 5z"/>
<path d="M1262 5453 c14 -52 18 -53 18 -5 0 30 -4 42 -14 42 -12 0 -12 -7 -4
-37z"/>
<path d="M513 5427 c26 -27 33 -27 17 2 -6 12 -17 21 -25 21 -10 0 -8 -7 8
-23z"/>
<path d="M769 5432 c12 -8 11 -11 -3 -15 -15 -4 -15 -5 1 -3 19 1 21 19 1 24
-10 3 -10 1 1 -6z"/>
<path d="M453 5402 c-8 -5 -7 -10 2 -19 10 -10 16 -9 26 3 6 8 9 17 5 21 -3 3
-6 0 -6 -8 0 -10 -2 -11 -8 -2 -4 7 -13 9 -19 5z"/>
<path d="M1256 5392 c13 -9 11 -61 -4 -89 -10 -18 -9 -20 7 -16 14 4 18 16 20
59 1 46 -1 54 -16 54 -11 0 -14 -3 -7 -8z"/>
<path d="M1648 5373 c25 -35 28 -48 10 -37 -14 9 21 -41 52 -73 21 -23 36 -31
26 -14 -4 5 -1 12 4 14 6 3 5 4 -2 3 -6 -1 -24 11 -39 28 -24 27 -25 33 -13
50 8 11 13 30 13 41 -1 17 -2 17 -6 3 -2 -10 -9 -18 -15 -18 -6 0 -21 8 -32
18 -18 16 -18 14 2 -15z"/>
<path d="M523 5374 c0 -7 8 -15 17 -17 9 -2 17 2 17 9 0 7 -8 15 -17 17 -9 2
-17 -2 -17 -9z"/>
<path d="M759 5373 c-11 -15 -11 -16 0 -6 7 6 20 9 29 6 10 -4 13 -2 8 5 -10
17 -21 15 -37 -5z"/>
<path d="M387 5343 c3 -7 0 -13 -6 -13 -6 0 -11 -4 -11 -10 0 -5 3 -9 8 -9 4
1 9 1 12 -1 3 -1 16 -3 30 -6 21 -3 22 -2 8 7 -10 5 -18 18 -18 28 0 10 -6 18
-14 18 -8 0 -12 -6 -9 -14z"/>
<path d="M520 5321 c0 -6 5 -11 11 -11 5 0 7 -4 4 -10 -3 -5 -1 -10 4 -10 16
0 13 16 -4 30 -10 9 -15 9 -15 1z"/>
<path d="M1730 5323 c0 -5 5 -15 10 -23 8 -12 10 -11 10 8 0 12 -4 22 -10 22
-5 0 -10 -3 -10 -7z"/>
<path d="M1177 5313 c-12 -12 -7 -22 8 -17 8 4 15 10 15 15 0 11 -14 12 -23 2z"/>
<path d="M637 5297 c2 -4 14 -5 25 -2 12 4 27 0 39 -11 15 -13 22 -15 31 -6 9
9 7 12 -9 12 -12 0 -24 4 -28 10 -3 5 -19 8 -34 7 -16 -1 -27 -6 -24 -10z"/>
<path d="M563 5289 c3 -9 0 -22 -6 -29 -8 -9 -5 -8 10 1 12 7 19 16 15 19 -4
3 -11 10 -16 15 -6 6 -7 4 -3 -6z"/>
<path d="M448 5273 c6 -2 12 -10 12 -17 0 -6 15 -12 33 -13 l32 -2 -27 10
c-16 6 -28 15 -28 20 0 5 -8 9 -17 8 -11 0 -13 -3 -5 -6z"/>
<path d="M1138 5206 c-19 -14 -25 -32 -8 -21 6 3 16 3 22 -1 9 -6 5 -10 -12
-14 -14 -4 -30 -3 -37 2 -7 5 -14 5 -18 -2 -3 -5 2 -10 12 -10 13 0 10 -5 -12
-20 -47 -31 -21 -23 49 14 35 19 67 32 72 28 4 -4 4 -1 0 6 -5 8 -17 10 -34 5
-24 -6 -26 -5 -13 10 16 20 3 22 -21 3z"/>
<path d="M1386 5192 c16 -15 31 -26 33 -25 7 5 -41 53 -52 53 -5 0 3 -12 19
-28z"/>
<path d="M1792 5167 c12 -24 23 -36 26 -29 5 17 -16 59 -34 66 -10 4 -7 -8 8
-37z"/>
<path d="M1234 5186 c11 -9 27 -16 35 -15 14 0 14 1 1 6 -8 3 -24 10 -35 15
-20 9 -20 9 -1 -6z"/>
<path d="M1331 5181 c-8 -5 -20 -7 -28 -4 -7 3 -13 0 -13 -6 0 -16 36 -13 50
4 14 17 11 19 -9 6z"/>
<path d="M1370 5165 c0 -8 5 -15 10 -15 6 0 10 7 10 15 0 8 -4 15 -10 15 -5 0
-10 -7 -10 -15z"/>
<path d="M1323 5134 c-9 -9 -9 -14 3 -18 9 -3 12 -1 9 4 -3 6 1 10 9 10 9 0
16 -5 16 -12 0 -6 2 -9 5 -6 9 9 -5 35 -18 35 -7 0 -18 -6 -24 -13z"/>
<path d="M1423 5135 c-8 -9 -9 -16 -3 -20 6 -3 13 1 16 10 9 21 2 26 -13 10z"/>
<path d="M1275 5119 c-4 -11 -2 -26 4 -32 15 -15 26 0 12 17 -9 11 -9 15 1 18
9 3 9 6 1 11 -7 4 -14 -2 -18 -14z"/>
<path d="M743 5116 c0 -8 6 -12 14 -9 7 3 13 9 13 14 0 5 -6 9 -13 9 -8 0 -14
-6 -14 -14z"/>
<path d="M1495 5103 c4 -15 2 -23 -6 -23 -9 0 -8 -4 1 -15 29 -35 43 5 14 41
-15 18 -15 18 -9 -3z"/>
<path d="M775 5101 c-18 -7 -17 -9 12 -24 20 -11 34 -13 38 -7 6 9 -8 15 -29
11 -5 -1 -4 5 4 13 13 17 6 19 -25 7z"/>
<path d="M550 5093 c1 -18 18 -35 24 -24 4 6 2 11 -4 11 -6 0 -8 5 -5 10 3 6
1 10 -4 10 -6 0 -11 -3 -11 -7z"/>
<path d="M1400 5090 c28 -19 50 -31 50 -26 0 11 -33 36 -48 36 -15 0 -15 -2
-2 -10z"/>
<path d="M643 5077 c10 -25 -28 -47 -64 -37 -16 5 -31 5 -34 0 -4 -7 -46 -7
-65 0 -3 2 -8 2 -12 1 -5 0 -8 3 -8 8 0 5 -9 11 -21 14 -16 4 -18 3 -9 -8 9
-11 6 -12 -17 -6 -15 4 -51 2 -80 -5 -28 -6 -55 -9 -59 -5 -4 3 -5 -1 -2 -9 2
-8 15 -16 29 -17 22 -2 22 -2 4 6 -16 8 -12 10 20 10 42 1 210 -14 281 -25 36
-5 41 -3 51 19 14 30 11 59 -7 65 -9 3 -11 -1 -7 -11z"/>
<path d="M710 5057 c0 -8 7 -17 15 -21 8 -3 15 -2 15 3 0 5 -7 14 -15 21 -12
10 -15 10 -15 -3z"/>
<path d="M1466 5035 c-3 -8 -1 -15 4 -15 6 0 10 5 10 11 0 8 5 8 15 -1 8 -7
12 -16 9 -21 -3 -5 0 -9 6 -9 6 0 8 -4 5 -10 -3 -6 1 -7 9 -4 19 7 5 38 -24
54 -24 13 -27 13 -34 -5z"/>
<path d="M1124 5025 c-7 -17 3 -35 19 -35 8 0 8 3 -1 12 -7 7 -12 16 -12 20 0
13 28 9 32 -4 3 -7 7 -6 11 5 5 13 1 17 -19 17 -13 0 -27 -7 -30 -15z"/>
<path d="M1287 5023 c-9 -9 -9 -41 1 -46 4 -3 7 8 7 24 0 16 0 29 -1 29 0 0
-4 -3 -7 -7z"/>
<path d="M1908 4963 c-3 -39 -4 -118 -1 -175 4 -118 4 -119 2 -155 -1 -15 4
-29 10 -31 9 -3 8 -8 -1 -20 -12 -15 -11 -16 4 -3 10 7 15 18 11 25 -13 20
-12 146 1 146 8 0 8 2 0 8 -14 9 -16 64 -2 56 6 -4 6 2 -1 13 -5 11 -9 53 -7
94 4 100 -9 136 -16 42z"/>
<path d="M1024 4995 c-3 -14 1 -34 13 -51 10 -16 17 -29 16 -31 -2 -2 -3 -11
-3 -20 0 -12 3 -14 11 -6 8 8 8 17 -1 33 -11 21 -10 22 9 17 11 -3 21 -1 21 4
0 5 -8 9 -17 9 -33 0 -44 14 -34 41 5 13 10 18 10 12 1 -17 18 -17 18 0 0 24
-37 17 -43 -8z"/>
<path d="M1377 4989 c6 -21 5 -23 -10 -10 -9 7 -17 9 -17 3 0 -5 6 -15 14 -21
11 -10 16 -8 21 9 4 12 2 27 -3 32 -8 8 -9 4 -5 -13z"/>
<path d="M210 4952 c-13 -20 -23 -43 -21 -51 1 -7 -2 -10 -8 -7 -11 7 -24 -10
-28 -39 -2 -10 -8 -22 -15 -26 -6 -4 -8 -11 -4 -17 3 -6 1 -12 -6 -14 -6 -2
-13 -15 -15 -29 -2 -13 -8 -26 -13 -27 -6 -2 -8 -8 -4 -13 3 -5 1 -9 -4 -9 -6
0 -8 -8 -5 -18 2 -10 -2 -24 -11 -31 -8 -7 -12 -20 -9 -28 4 -10 36 47 90 157
83 172 101 223 53 152z"/>
<path d="M1469 4970 c4 -14 6 -31 4 -37 -3 -7 0 -13 6 -13 16 0 13 33 -4 56
-14 18 -15 18 -6 -6z"/>
<path d="M450 4961 c-8 -6 -17 -8 -21 -5 -8 5 -30 -20 -28 -32 3 -21 -2 -35
-11 -29 -5 3 -10 2 -10 -4 0 -5 6 -12 13 -14 10 -4 10 -6 0 -6 -7 -1 -13 -5
-13 -11 0 -19 29 2 32 23 2 14 10 22 21 22 10 0 25 11 32 25 22 40 17 50 -15
31z"/>
<path d="M345 4938 c-5 -14 -2 -45 6 -52 2 -2 4 11 5 30 1 35 -3 43 -11 22z"/>
<path d="M1015 4920 c-8 -13 -1 -24 14 -19 6 3 7 10 2 18 -6 10 -10 10 -16 1z"/>
<path d="M1563 4911 c1 -11 12 -25 25 -30 l24 -11 -22 30 c-25 35 -29 37 -27
11z"/>
<path d="M1191 4890 c-1 -21 16 -46 26 -37 4 5 3 11 -3 15 -6 4 -14 14 -17 22
-5 13 -5 13 -6 0z"/>
<path d="M1257 4866 c-12 -9 -14 -16 -7 -21 5 -3 8 -11 5 -16 -4 -5 -1 -9 5
-9 6 0 10 8 9 18 -3 31 1 35 19 21 15 -13 16 -12 3 4 -7 9 -14 17 -15 17 0 0
-9 -7 -19 -14z"/>
<path d="M634 4853 c2 -13 0 -23 -6 -23 -5 0 -6 -5 -3 -10 4 -6 11 -8 16 -5 5
4 9 1 9 -6 0 -7 2 -10 6 -7 3 3 -2 21 -11 39 -9 21 -14 25 -11 12z"/>
<path d="M667 4856 c-4 -10 -5 -21 -2 -24 9 -9 17 6 13 25 -3 17 -4 17 -11 -1z"/>
<path d="M1485 4861 c-2 -5 7 -12 21 -15 35 -9 40 -2 9 12 -13 6 -27 7 -30 3z"/>
<path d="M2211 4845 c-21 -339 -22 -615 -2 -615 3 0 6 34 6 75 0 43 -4 75 -10
75 -5 0 -3 5 5 10 10 7 11 10 2 10 -15 0 -8 123 8 128 6 2 6 10 0 21 -5 10 -7
21 -4 24 9 9 12 209 4 252 -4 22 -8 31 -9 20z"/>
<path d="M816 4837 c-12 -9 -16 -22 -13 -38 4 -23 4 -23 6 4 0 17 7 27 16 27
8 0 15 5 15 10 0 13 -3 13 -24 -3z"/>
<path d="M365 4809 c-6 -28 -8 -29 -20 -12 -8 10 -17 14 -22 9 -4 -5 -2 -11 5
-13 6 -3 12 -17 13 -31 0 -16 3 -21 6 -12 4 8 17 32 30 53 17 28 20 37 9 37
-8 0 -17 -14 -21 -31z"/>
<path d="M984 4826 c-9 -10 -7 -16 7 -24 15 -10 19 -9 19 0 0 25 -14 37 -26
24z"/>
<path d="M1191 4825 c0 -11 4 -27 9 -35 9 -13 10 -13 9 0 0 8 -4 24 -9 35 -9
20 -9 20 -9 0z"/>
<path d="M1314 4828 c-4 -7 -4 -10 1 -6 4 4 15 2 23 -5 12 -10 14 -9 11 2 -7
20 -26 25 -35 9z"/>
<path d="M566 4767 c-8 -31 -7 -37 5 -37 5 0 7 5 4 10 -4 6 -2 17 5 25 6 8 7
16 2 19 -6 3 -12 -4 -16 -17z"/>
<path d="M650 4781 c0 -17 18 -21 24 -6 3 9 0 15 -9 15 -8 0 -15 -4 -15 -9z"/>
<path d="M290 4760 c-22 -22 -27 -42 -7 -35 11 5 40 55 31 55 -2 0 -13 -9 -24
-20z"/>
<path d="M530 4770 c0 -6 -6 -10 -13 -8 -7 2 -14 -1 -15 -7 -3 -13 19 -14 36
-2 14 11 16 27 2 27 -5 0 -10 -5 -10 -10z"/>
<path d="M997 4761 c-3 -14 -1 -18 9 -14 16 6 18 19 5 27 -5 3 -11 -3 -14 -13z"/>
<path d="M1570 4760 c13 -23 20 -26 20 -6 0 8 -7 16 -15 20 -13 4 -14 2 -5
-14z"/>
<path d="M900 4756 c0 -8 -6 -16 -12 -19 -7 -3 -3 -4 9 -4 14 1 21 7 20 19 -1
21 -17 25 -17 4z"/>
<path d="M1183 4763 c-7 -3 -12 -14 -12 -26 1 -17 2 -18 6 -4 2 9 8 15 13 12
5 -3 11 -1 14 4 8 12 -5 20 -21 14z"/>
<path d="M1873 4730 c0 -25 2 -35 4 -22 2 12 2 32 0 45 -2 12 -4 2 -4 -23z"/>
<path d="M438 4732 c-2 -15 -1 -38 3 -52 6 -21 7 -19 8 13 1 21 5 36 10 32 6
-3 9 4 8 15 -2 30 -24 24 -29 -8z"/>
<path d="M958 4729 c2 -16 7 -31 11 -34 4 -2 5 9 3 26 -2 16 -7 31 -11 34 -4
2 -5 -9 -3 -26z"/>
<path d="M411 4735 c-1 -11 -10 -31 -21 -45 -22 -28 -26 -55 -8 -66 8 -5 9 -2
5 10 -4 11 1 33 14 56 12 21 19 44 16 51 -3 9 -6 7 -6 -6z"/>
<path d="M783 4735 c-3 -9 -3 -19 1 -22 3 -4 6 2 6 13 0 16 2 17 10 4 8 -13
10 -12 10 3 0 21 -18 23 -27 2z"/>
<path d="M1024 4727 c-8 -21 -3 -29 13 -19 8 5 9 13 3 22 -7 12 -10 12 -16 -3z"/>
<path d="M330 4721 c0 -7 -6 -11 -14 -8 -10 4 -12 0 -9 -14 3 -11 2 -19 -3
-18 -25 4 -34 -4 -34 -28 l1 -28 14 25 c21 36 18 15 -6 -53 -11 -32 -19 -60
-17 -63 3 -2 21 40 41 93 19 54 34 100 31 102 -2 2 -4 -1 -4 -8z"/>
<path d="M476 4694 c-4 -20 -5 -38 -3 -40 3 -3 8 11 11 32 4 20 5 38 3 40 -3
3 -8 -11 -11 -32z"/>
<path d="M652 4719 c2 -7 10 -15 17 -17 8 -3 12 1 9 9 -2 7 -10 15 -17 17 -8
3 -12 -1 -9 -9z"/>
<path d="M1337 4697 c-19 -23 -23 -52 -6 -41 6 3 15 0 20 -7 6 -9 9 -10 9 -2
0 6 -5 15 -10 18 -7 4 -6 13 1 26 15 29 7 32 -14 6z"/>
<path d="M1630 4700 c13 -23 20 -26 20 -6 0 8 -7 16 -15 20 -13 4 -14 2 -5
-14z"/>
<path d="M1170 4679 c7 -11 14 -19 16 -16 7 7 -7 37 -17 37 -6 0 -5 -9 1 -21z"/>
<path d="M1713 4686 c-23 -6 -50 -19 -60 -29 -15 -15 -12 -14 22 3 22 11 52
20 68 20 27 0 28 -2 24 -39 -2 -22 0 -46 4 -53 5 -8 9 12 9 48 0 67 0 67 -67
50z"/>
<path d="M608 4675 c-2 -11 -1 -30 3 -42 6 -16 4 -25 -9 -32 -16 -10 -16 -10
1 -11 9 0 17 3 18 8 0 4 2 15 4 25 2 9 0 29 -4 45 -7 23 -9 24 -13 7z"/>
<path d="M848 4665 c2 -14 9 -25 14 -25 6 0 7 8 4 17 -4 9 -1 20 6 25 9 5 7 8
-8 8 -17 0 -20 -5 -16 -25z"/>
<path d="M1867 4636 c-4 -27 -6 -67 -6 -90 1 -28 4 -18 10 34 10 85 7 131 -4
56z"/>
<path d="M1113 4663 c-10 -4 -10 -9 1 -25 8 -11 12 -28 10 -37 -3 -9 1 -5 8 8
9 19 10 25 1 28 -7 3 -9 11 -6 19 5 15 5 15 -14 7z"/>
<path d="M1000 4650 c0 -8 5 -22 10 -30 9 -13 10 -13 10 0 0 8 -5 22 -10 30
-9 13 -10 13 -10 0z"/>
<path d="M132 4621 c1 -16 5 -28 9 -26 6 5 0 55 -7 55 -3 0 -3 -13 -2 -29z"/>
<path d="M816 4642 c-2 -4 -1 -14 3 -21 6 -9 10 -7 14 8 5 20 -7 29 -17 13z"/>
<path d="M787 4616 c-6 -14 2 -24 32 -41 8 -5 7 3 -5 21 -10 16 -19 30 -20 32
-1 2 -4 -4 -7 -12z"/>
<path d="M340 4593 c0 -14 3 -23 7 -19 10 10 11 46 1 46 -4 0 -8 -12 -8 -27z"/>
<path d="M1473 4608 c-22 -29 -24 -38 -8 -38 9 0 14 4 10 9 -3 5 2 17 11 25 8
9 11 16 6 16 -5 0 -14 -6 -19 -12z"/>
<path d="M497 4593 c3 -7 0 -20 -7 -28 -10 -12 -10 -15 3 -15 9 0 16 12 19 28
2 18 0 29 -8 29 -7 0 -10 -6 -7 -14z"/>
<path d="M1600 4600 c0 -5 12 -10 28 -9 24 0 25 1 7 9 -27 12 -35 12 -35 0z"/>
<path d="M957 4576 c-4 -10 -5 -21 -2 -24 9 -9 17 6 13 25 -3 17 -4 17 -11 -1z"/>
<path d="M387 4568 c-2 -7 -6 -17 -7 -23 -2 -5 -11 -16 -21 -23 -32 -22 -21
-33 16 -15 19 9 35 21 35 25 0 5 -5 6 -10 3 -7 -4 -9 2 -4 19 6 26 0 36 -9 14z"/>
<path d="M731 4553 c4 -20 -2 -32 -18 -36 -10 -2 -4 -4 13 -4 26 0 30 3 26 19
-4 18 -24 38 -21 21z"/>
<path d="M1426 4545 c-5 -13 -2 -14 17 -4 32 17 33 19 10 19 -12 0 -23 -7 -27
-15z"/>
<path d="M180 4545 c-1 -5 -2 -14 -1 -19 1 -5 -4 -13 -11 -17 -7 -4 -9 -11 -5
-15 13 -13 29 12 24 37 -2 13 -5 20 -7 14z"/>
<path d="M677 4485 c-4 -8 -2 -17 3 -20 6 -4 10 -4 10 -1 0 2 3 11 6 20 3 9 2
16 -4 16 -5 0 -12 -7 -15 -15z"/>
<path d="M1853 4450 c0 -30 2 -43 4 -27 2 15 2 39 0 55 -2 15 -4 2 -4 -28z"/>
<path d="M1030 4480 c-12 -7 -12 -12 -2 -22 9 -9 12 -9 12 1 0 11 3 11 18 0
16 -13 16 -13 2 6 -8 11 -15 21 -15 22 0 1 -7 -2 -15 -7z"/>
<path d="M1370 4470 c0 -5 -11 -12 -24 -16 -22 -5 -23 -8 -13 -47 5 -23 10
-102 11 -174 1 -84 5 -134 12 -137 6 -2 10 6 9 17 -3 32 5 46 21 40 10 -4 12
0 8 11 -3 9 -10 16 -15 16 -5 0 -7 11 -5 23 2 13 -2 49 -9 80 -10 42 -10 57
-1 60 8 3 7 9 -3 21 -10 11 -11 20 -5 24 6 4 13 15 17 24 4 12 2 15 -9 11 -8
-3 -14 1 -14 10 0 8 11 18 25 21 14 4 23 11 20 16 -8 13 -25 13 -25 0z"/>
<path d="M101 4462 c-1 -7 5 -15 13 -18 8 -3 12 -15 10 -27 -4 -21 -4 -21 5
-2 14 28 13 35 -3 35 -8 0 -17 6 -19 13 -4 9 -6 9 -6 -1z"/>
<path d="M535 4455 c-3 -8 -7 -23 -11 -32 -3 -10 -2 -14 2 -10 4 4 16 -1 27
-10 11 -10 17 -13 14 -6 -4 6 -1 14 5 16 7 3 2 6 -11 6 -19 1 -23 5 -19 26 6
27 0 34 -7 10z"/>
<path d="M1754 4412 c-1 -32 0 -44 3 -27 3 16 10 33 16 37 9 6 9 8 0 8 -7 0
-10 6 -7 14 3 8 2 16 -3 19 -4 3 -9 -20 -9 -51z"/>
<path d="M610 4452 c0 -5 7 -16 16 -23 14 -12 16 -11 13 5 -4 20 -29 35 -29
18z"/>
<path d="M959 4403 c19 -15 46 -29 60 -30 22 -3 24 -2 8 7 -9 6 -21 9 -26 5
-5 -3 -16 3 -23 13 -7 10 -22 22 -33 25 -11 4 -5 -4 14 -20z"/>
<path d="M375 4401 c-3 -8 -3 -16 0 -19 3 -3 5 0 5 6 0 7 9 12 19 12 11 0 22
3 24 8 3 4 -6 7 -19 7 -13 0 -26 -6 -29 -14z"/>
<path d="M1275 4390 c-4 -11 -11 -18 -16 -14 -5 3 -26 -4 -46 -16 -19 -11 -52
-25 -72 -30 -31 -8 -29 -9 20 -5 50 4 59 1 79 -20 19 -21 21 -27 10 -40 -11
-13 -11 -20 1 -41 10 -20 11 -29 1 -45 -10 -15 -10 -19 0 -19 9 0 8 -3 -2 -10
-10 -7 -12 -12 -4 -17 6 -5 14 -15 17 -23 3 -9 6 -2 7 15 1 17 5 74 9 127 5
82 4 98 -9 102 -11 3 -11 4 3 5 11 1 17 9 17 26 0 30 -6 32 -15 5z"/>
<path d="M270 4383 c0 -11 3 -14 8 -7 4 6 14 14 22 17 10 4 8 6 -7 6 -16 1
-23 -5 -23 -16z"/>
<path d="M1580 4393 c0 -17 28 -48 36 -40 4 4 2 7 -4 7 -7 0 -12 6 -12 14 0 8
-4 18 -10 21 -5 3 -10 2 -10 -2z"/>
<path d="M1846 4375 c-3 -9 -5 -38 -5 -63 2 -47 2 -47 9 13 8 62 7 78 -4 50z"/>
<path d="M1590 4332 c0 -11 23 -22 46 -22 8 0 14 4 14 10 0 5 -7 7 -15 4 -8
-4 -22 -1 -30 6 -9 7 -15 8 -15 2z"/>
<path d="M950 4309 c-71 -10 -143 -37 -134 -50 7 -12 44 -11 44 1 0 17 28 11
33 -7 4 -14 5 -13 6 4 1 23 11 28 76 39 42 7 84 24 55 22 -8 0 -44 -4 -80 -9z"/>
<path d="M693 4273 c9 -2 25 -2 35 0 9 3 1 5 -18 5 -19 0 -27 -2 -17 -5z"/>
<path d="M1484 4265 c36 -19 45 -19 20 0 -10 8 -26 14 -34 15 -8 0 -2 -7 14
-15z"/>
<path d="M1650 4265 c0 -16 38 -45 60 -45 8 0 0 8 -18 17 -21 10 -29 19 -22
23 8 5 7 9 -4 13 -10 4 -16 1 -16 -8z"/>
<path d="M540 4266 c0 -9 37 -12 55 -5 15 6 11 8 -17 8 -21 1 -38 -1 -38 -3z"/>
<path d="M747 4253 c-13 -12 -7 -22 13 -20 25 2 36 27 11 27 -10 0 -21 -3 -24
-7z"/>
<path d="M695 4245 c-5 -2 -22 -6 -37 -9 -24 -6 -26 -8 -18 -37 6 -19 6 -38 0
-49 -5 -10 -7 -20 -3 -23 3 -4 -3 -5 -14 -3 -17 4 -18 -1 -15 -50 3 -45 0 -54
-14 -54 -14 0 -14 -2 -3 -16 8 -10 9 -18 3 -22 -6 -4 -11 -18 -12 -32 0 -13
-7 -29 -15 -35 -8 -5 -12 -16 -9 -23 2 -7 -4 -20 -14 -27 -12 -9 -14 -14 -6
-15 7 0 10 -5 7 -10 -4 -6 -9 -22 -11 -37 -3 -14 -10 -36 -17 -47 -6 -12 -10
-28 -9 -38 2 -9 -2 -19 -8 -23 -6 -3 -8 -11 -5 -16 4 -5 1 -9 -4 -9 -6 0 -9
-10 -7 -22 1 -13 0 -30 -4 -38 -10 -21 -31 -112 -27 -116 2 -2 16 38 30 89 15
50 54 173 86 272 33 99 72 224 87 277 14 54 30 95 34 93 5 -3 8 -38 8 -77 1
-40 10 -118 21 -173 24 -117 51 -338 51 -412 0 -36 -5 -57 -17 -69 -13 -13
-14 -16 -3 -12 17 5 90 110 83 118 -2 3 -9 -3 -14 -13 -16 -28 -25 -12 -23 37
1 26 -2 49 -7 52 -15 9 -10 34 7 34 8 0 13 -4 9 -9 -3 -5 -1 -12 5 -16 13 -8
15 -21 -29 155 -21 85 -47 211 -56 280 -10 69 -18 126 -19 126 0 1 -5 0 -11
-1z"/>
<path d="M556 4221 c-18 -7 -18 -8 -2 -14 19 -8 36 -1 36 14 0 10 -7 11 -34 0z"/>
<path d="M353 4153 c-63 -86 -87 -123 -79 -123 14 0 146 163 146 181 0 22 -21
4 -67 -58z"/>
<path d="M506 4137 c-4 -47 -11 -100 -16 -118 -18 -61 -3 -40 29 43 18 46 35
88 37 93 2 6 -7 23 -20 38 l-23 29 -7 -85z"/>
<path d="M1754 4206 c-3 -8 -4 -23 -2 -33 3 -11 6 -6 9 15 6 34 2 42 -7 18z"/>
<path d="M437 4178 c-13 -18 -59 -84 -101 -147 -71 -106 -89 -140 -66 -126 17
10 147 189 180 248 34 62 26 78 -13 25z"/>
<path d="M855 4200 c-3 -5 -1 -10 5 -10 6 0 8 -4 5 -10 -3 -5 1 -10 10 -10 13
0 14 4 5 20 -12 23 -16 24 -25 10z"/>
<path d="M1600 4188 c0 -12 7 -18 23 -17 15 0 17 2 7 6 -8 3 -18 11 -22 17 -5
7 -8 4 -8 -6z"/>
<path d="M763 4169 c-2 -26 14 -33 20 -10 3 11 -1 22 -7 24 -7 3 -13 -4 -13
-14z"/>
<path d="M2193 4130 c-6 -17 -7 -30 -2 -30 9 0 24 48 17 55 -2 2 -9 -9 -15
-25z"/>
<path d="M1750 4143 c0 -5 5 -15 10 -23 8 -12 10 -11 10 8 0 12 -4 22 -10 22
-5 0 -10 -3 -10 -7z"/>
<path d="M1900 4140 c0 -8 5 -22 10 -30 9 -13 10 -13 10 0 0 8 -5 22 -10 30
-9 13 -10 13 -10 0z"/>
<path d="M404 4029 c-122 -169 -144 -201 -144 -210 0 -18 16 -8 32 19 9 15 33
45 53 67 66 72 136 188 122 202 -3 2 -31 -33 -63 -78z"/>
<path d="M910 4096 c0 -8 5 -18 10 -21 6 -3 10 1 10 9 0 8 -4 18 -10 21 -5 3
-10 -1 -10 -9z"/>
<path d="M1260 4084 c0 -5 7 -18 15 -28 12 -16 15 -17 15 -4 0 8 -7 21 -15 28
-8 7 -15 9 -15 4z"/>
<path d="M1332 4067 c-6 -12 -12 -40 -14 -62 -3 -40 -2 -41 25 -37 20 3 25 7
16 13 -7 4 -16 6 -20 3 -12 -7 -3 64 10 80 7 8 8 17 3 20 -5 3 -14 -5 -20 -17z"/>
<path d="M1914 4070 c3 -14 6 -37 6 -52 0 -16 4 -28 9 -28 12 0 2 82 -12 95
-6 7 -8 2 -3 -15z"/>
<path d="M808 4063 c-10 -2 -18 -8 -18 -13 0 -10 38 -1 46 11 5 9 1 10 -28 2z"/>
<path d="M1780 4025 c0 -8 -6 -15 -12 -15 -9 0 -10 -3 -2 -8 6 -4 14 -14 17
-22 3 -8 6 2 6 23 1 20 -1 37 -4 37 -3 0 -5 -7 -5 -15z"/>
<path d="M1005 4000 c-5 -8 63 -36 70 -28 1 1 -13 10 -31 19 -19 9 -37 13 -39
9z"/>
<path d="M1690 4000 c-8 -5 -11 -12 -8 -16 4 -3 14 1 23 10 18 17 9 21 -15 6z"/>
<path d="M873 3993 c4 -6 -3 -13 -14 -16 -12 -3 -18 -10 -14 -16 9 -16 19 -13
32 9 9 14 10 21 1 26 -6 4 -8 3 -5 -3z"/>
<path d="M1125 3955 c34 -16 64 -20 50 -6 -6 5 -26 12 -45 15 l-35 6 30 -15z"/>
<path d="M1901 3884 c1 -49 5 -138 9 -199 6 -82 7 -61 3 85 -2 107 -6 196 -9
199 -2 2 -3 -36 -3 -85z"/>
<path d="M2220 3945 c-13 -14 -19 -25 -13 -25 5 0 20 11 33 25 13 14 19 25 13
25 -5 0 -20 -11 -33 -25z"/>
<path d="M1258 3929 c14 -14 82 -22 82 -10 0 7 -4 9 -10 6 -5 -3 -15 -3 -22 1
-15 10 -60 12 -50 3z"/>
<path d="M1784 3903 c-7 -28 -14 -37 -27 -35 -9 2 -17 -2 -17 -8 0 -5 14 -10
30 -10 29 0 30 2 30 45 0 25 -1 45 -3 45 -2 0 -8 -17 -13 -37z"/>
<path d="M914 3905 c-14 -10 -15 -14 -5 -15 11 0 10 -4 -4 -13 -10 -8 -15 -19
-11 -25 3 -5 1 -12 -5 -14 -8 -3 -6 -10 5 -21 10 -10 14 -22 10 -29 -11 -18
-12 -48 -3 -54 5 -3 11 5 14 18 6 31 23 162 21 165 -2 2 -11 -4 -22 -12z"/>
<path d="M1110 3902 c0 -4 12 -9 28 -10 21 -1 23 0 12 8 -18 12 -40 13 -40 2z"/>
<path d="M1405 3900 c-4 -6 6 -10 22 -10 22 0 25 2 13 10 -19 12 -27 12 -35 0z"/>
<path d="M1510 3902 c0 -6 -8 -13 -17 -15 -10 -3 -2 -5 17 -6 19 0 31 3 25 7
-5 4 -13 11 -17 16 -5 5 -8 5 -8 -2z"/>
<path d="M1660 3900 c0 -5 -7 -10 -16 -10 -14 0 -14 -3 -4 -15 8 -9 28 -15 54
-14 39 1 40 1 12 9 -16 5 -33 7 -37 5 -4 -3 -5 4 -2 15 3 11 3 20 -1 20 -3 0
-6 -4 -6 -10z"/>
<path d="M1930 3900 c0 -8 5 -22 10 -30 9 -13 10 -13 10 0 0 8 -5 22 -10 30
-9 13 -10 13 -10 0z"/>
<path d="M387 3822 c-31 -38 -47 -66 -47 -84 0 -31 11 -36 31 -12 14 17 71
146 66 150 -1 2 -24 -23 -50 -54z"/>
<path d="M1970 3860 c-12 -8 -11 -10 8 -10 12 0 22 5 22 10 0 13 -11 13 -30 0z"/>
<path d="M1827 3773 c7 -71 11 -75 12 -10 1 31 -3 57 -8 57 -5 0 -6 -21 -4
-47z"/>
<path d="M1600 3806 c0 -2 11 -6 25 -8 14 -3 25 -1 25 3 0 5 -11 9 -25 9 -14
0 -25 -2 -25 -4z"/>
<path d="M1940 3718 c-3 -53 -1 -94 3 -89 4 4 6 48 5 97 l-3 89 -5 -97z"/>
<path d="M1793 3765 c0 -22 2 -30 4 -17 2 12 2 30 0 40 -3 9 -5 -1 -4 -23z"/>
<path d="M1330 3741 c0 -17 18 -21 24 -6 3 9 0 15 -9 15 -8 0 -15 -4 -15 -9z"/>
<path d="M1793 3665 c0 -33 2 -45 4 -27 2 18 2 45 0 60 -2 15 -4 0 -4 -33z"/>
<path d="M1823 3560 c0 -30 2 -43 4 -27 2 15 2 39 0 55 -2 15 -4 2 -4 -28z"/>
<path d="M1930 3518 c0 -45 2 -79 5 -76 8 8 11 158 3 158 -5 0 -8 -37 -8 -82z"/>
<path d="M566 3565 c-3 -8 -3 -15 0 -15 3 0 12 7 20 15 13 13 13 15 1 15 -8 0
-17 -7 -21 -15z"/>
<path d="M1773 3566 c-10 -11 -9 -15 2 -20 10 -4 15 1 15 14 0 23 -1 24 -17 6z"/>
<path d="M1907 3563 c-4 -3 -6 -38 -5 -77 l1 -71 7 75 c7 82 6 83 -3 73z"/>
<path d="M1776 3477 c-4 -27 -5 -51 -2 -55 3 -3 6 6 6 19 0 14 4 29 9 35 5 5
5 18 1 29 -5 15 -9 8 -14 -28z"/>
<path d="M1926 3418 c-3 -7 -7 -53 -10 -102 -4 -49 -9 -100 -13 -114 -4 -16
-2 -23 4 -19 11 7 29 157 24 186 -2 8 4 20 12 26 12 9 12 12 1 23 -12 11 -15
11 -18 0z"/>
<path d="M741 3380 c-1 -25 -4 -72 -6 -105 l-4 -60 10 55 c5 30 8 78 6 105
l-3 50 -3 -45z"/>
<path d="M770 3401 c0 -5 7 -12 16 -15 24 -9 28 -7 14 9 -14 17 -30 20 -30 6z"/>
<path d="M1773 3350 c0 -36 2 -50 4 -32 2 17 2 47 0 65 -2 17 -4 3 -4 -33z"/>
<path d="M1813 3345 c0 -33 2 -45 4 -27 2 18 2 45 0 60 -2 15 -4 0 -4 -33z"/>
<path d="M1893 3355 c0 -27 2 -38 4 -22 2 15 2 37 0 50 -2 12 -4 0 -4 -28z"/>
<path d="M713 3285 c0 -22 2 -30 4 -17 2 12 2 30 0 40 -3 9 -5 -1 -4 -23z"/>
<path d="M774 3229 c-19 -22 -19 -22 4 -10 12 6 22 16 22 21 0 15 -5 12 -26
-11z"/>
<path d="M668 3222 c-3 -11 0 -19 8 -19 7 0 15 9 17 19 3 10 0 18 -8 18 -7 0
-15 -8 -17 -18z"/>
<path d="M720 3184 c0 -14 -3 -23 -7 -21 -5 3 -9 -21 -10 -52 -1 -43 0 -51 8
-33 12 30 24 132 15 132 -3 0 -6 -12 -6 -26z"/>
<path d="M1767 3183 c-4 -3 -6 -56 -5 -117 l2 -111 5 115 c7 128 7 122 -2 113z"/>
<path d="M1900 3037 c0 -111 2 -134 15 -134 9 0 11 4 6 11 -5 6 -8 64 -7 129
1 65 -2 121 -6 123 -4 3 -8 -55 -8 -129z"/>
<path d="M660 3023 c0 -13 5 -23 10 -23 13 0 13 11 0 30 -8 12 -10 11 -10 -7z"/>
<path d="M1798 3008 c-2 -7 -1 -35 3 -63 l6 -50 1 63 c2 59 -1 76 -10 50z"/>
<path d="M1793 2805 c0 -27 2 -38 4 -22 2 15 2 37 0 50 -2 12 -4 0 -4 -28z"/>
<path d="M430 2803 c0 -21 -5 -95 -12 -164 -12 -136 2 -494 22 -554 8 -25 9
-22 4 20 -18 149 -23 437 -10 618 5 64 6 117 2 117 -3 0 -6 -17 -6 -37z"/>
<path d="M1873 2770 c0 -25 2 -35 4 -22 2 12 2 32 0 45 -2 12 -4 2 -4 -23z"/>
<path d="M1902 2760 c0 -19 2 -27 5 -17 2 9 2 25 0 35 -3 9 -5 1 -5 -18z"/>
<path d="M2323 2585 c0 -33 2 -45 4 -27 2 18 2 45 0 60 -2 15 -4 0 -4 -33z"/>
<path d="M2317 2408 c-4 -54 -14 -134 -23 -179 -16 -88 -13 -121 4 -42 18 79
34 225 30 273 -2 32 -5 16 -11 -52z"/>
<path d="M2261 2053 c-14 -89 -17 -117 -26 -228 -3 -44 -10 -118 -16 -165 -10
-96 -11 -126 -4 -119 2 3 14 102 25 220 17 184 27 260 45 352 2 9 0 17 -4 17
-4 0 -13 -35 -20 -77z"/>
<path d="M2203 1485 c0 -22 2 -30 4 -17 2 12 2 30 0 40 -3 9 -5 -1 -4 -23z"/>
<path d="M2193 1418 c1 -16 5 -28 9 -28 10 0 9 9 -2 35 -8 17 -8 16 -7 -7z"/>
<path d="M403 1363 c-4 -37 -7 -189 -7 -338 1 -240 4 -280 23 -365 12 -52 25
-111 27 -130 3 -19 8 -42 11 -50 7 -20 9 -43 17 -180 12 -236 18 -300 27 -300
21 0 -16 541 -40 588 -40 77 -62 356 -51 637 5 110 7 201 5 203 -2 2 -7 -27
-12 -65z"/>
<path d="M2185 1337 c-4 -25 -5 -52 -3 -59 3 -7 8 11 13 40 4 29 5 56 2 59 -3
2 -9 -16 -12 -40z"/>
<path d="M2169 1152 c-3 -20 -2 -29 4 -23 5 5 7 19 5 32 -3 20 -5 19 -9 -9z"/>
<path d="M2144 974 c-11 -57 -18 -104 -15 -104 7 0 46 198 40 204 -2 3 -14
-42 -25 -100z"/>
<path d="M2120 837 c0 -20 9 -33 39 -51 21 -14 48 -37 60 -52 11 -15 21 -23
21 -18 0 16 -16 34 -51 59 -19 14 -42 40 -51 58 l-18 32 0 -28z"/>
<path d="M1297 815 c-3 -16 -9 -50 -12 -75 -5 -39 -4 -42 7 -25 12 18 14 15
19 -35 5 -48 6 -45 6 30 1 47 -2 96 -6 110 l-8 25 -6 -30z"/>
<path d="M1266 619 c-4 -23 -5 -44 -2 -46 2 -2 7 14 11 37 4 23 5 43 2 46 -2
3 -7 -14 -11 -37z"/>
<path d="M2246 578 c-3 -13 -1 -27 4 -32 7 -7 10 1 10 22 0 37 -5 41 -14 10z"/>
<path d="M1264 455 c0 -60 1 -84 3 -52 2 32 2 81 0 110 -2 29 -3 3 -3 -58z"/>
<path d="M2235 500 c-4 -17 -5 -34 -2 -36 3 -3 8 9 12 26 4 17 5 34 2 36 -3 3
-8 -9 -12 -26z"/>
<path d="M2212 408 c-15 -57 -8 -60 11 -4 9 26 12 46 8 46 -5 0 -13 -19 -19
-42z"/>
<path d="M1313 220 c0 -25 2 -35 4 -22 2 12 2 32 0 45 -2 12 -4 2 -4 -23z"/>
<path d="M1243 150 c0 -36 2 -50 4 -32 2 17 2 47 0 65 -2 17 -4 3 -4 -33z"/>
<path d="M2136 179 c-8 -42 0 -50 9 -9 4 17 5 34 2 36 -2 3 -7 -10 -11 -27z"/>
<path d="M1313 130 c0 -25 2 -35 4 -22 2 12 2 32 0 45 -2 12 -4 2 -4 -23z"/>
<path d="M2143 55 c0 -22 2 -30 4 -17 2 12 2 30 0 40 -3 9 -5 -1 -4 -23z"/>
</g>
</svg>
